<?xml version="1.0" encoding="UTF-8"?>
<svg version="1.1" xmlns="http://www.w3.org/2000/svg" width="450" height="352">
<path d="M0 0 C148.5 0 297 0 450 0 C450 116.16 450 232.32 450 352 C301.5 352 153 352 0 352 C0 235.84 0 119.68 0 0 Z " fill="#FDFEFE" transform="translate(0,0)"/>
<path d="M0 0 C3.21646257 3.04181302 5.76593011 6.30422517 8.375 9.875 C25.57151433 32.59827035 49.5946051 46.91846135 75 59 C75.93070312 59.44988281 76.86140625 59.89976563 77.8203125 60.36328125 C82.59513784 62.61148618 87.41365796 64.55233938 92.390625 66.30859375 C93.62296875 66.74494141 94.8553125 67.18128906 96.125 67.63085938 C97.0835791 67.96923828 97.0835791 67.96923828 98.06152344 68.31445312 C101.21560163 69.42990043 104.36524315 70.55775708 107.515625 71.68359375 C110.09339536 72.60256001 112.67162666 73.52022705 115.25 74.4375 C115.92697937 74.67844391 116.60395874 74.91938782 117.30145264 75.16763306 C125.04969836 77.92294725 132.80531785 80.64026873 140.625 83.1875 C147.17148861 85.32711446 153.62428139 87.6790171 160.0625 90.125 C160.9198877 90.45008545 161.77727539 90.7751709 162.66064453 91.11010742 C170.37823549 94.07487449 177.88531805 97.36389237 185.25 101.125 C187.96220192 102.50980151 190.6065887 103.85027818 193.453125 104.93359375 C204.56643773 109.58686733 214.14257122 118.02592665 223 126 C223.75023437 126.65484375 224.50046875 127.3096875 225.2734375 127.984375 C244.29211849 145.5747756 250.43487547 171.20513239 252 196 C253.89286408 187.49901221 254.24556778 179.11745011 254.3125 170.4375 C254.33860352 168.87817749 254.33860352 168.87817749 254.36523438 167.28735352 C254.35320769 148.17544098 245.72513114 129.98413434 232.9765625 115.92578125 C229.2498973 112.29486041 225.14498492 109.13584372 221 106 C222.5381999 100.88573028 225.70971511 97.53015643 229.1875 93.625 C229.73986328 92.99078125 230.29222656 92.3565625 230.86132812 91.703125 C236.04416589 85.80396006 241.47890903 80.1847975 247.4375 75.0625 C248.11683594 74.47597656 248.79617188 73.88945313 249.49609375 73.28515625 C249.99238281 72.86105469 250.48867188 72.43695313 251 72 C250.17757812 71.74347656 249.35515625 71.48695312 248.5078125 71.22265625 C238.77395007 67.88436856 230.6717848 62.83281137 225 54 C225 53.01 225 52.02 225 51 C225.61705811 51.02618408 226.23411621 51.05236816 226.86987305 51.0793457 C246.08483657 51.78075136 263.03996063 49.64590016 280.58984375 41.55078125 C284.46575031 39.78819831 288.3907006 38.24694302 292.375 36.75 C293.01735596 36.50386963 293.65971191 36.25773926 294.3215332 36.00415039 C304.60651388 32.15409366 316.61812535 29.20657265 327.14453125 33.875 C330.80834306 36.09642695 334.12304239 38.82463455 337 42 C337 42.66 337 43.32 337 44 C337.54164795 43.78996338 338.0832959 43.57992676 338.64135742 43.36352539 C349.04517722 39.57798538 361.43194277 38.74029821 371.6875 43.4375 C377.1026136 46.62868509 381.46287577 50.79834672 385 56 C385 56.66 385 57.32 385 58 C384.12601562 57.979375 383.25203125 57.95875 382.3515625 57.9375 C360.82728864 58.29849411 343.50662175 71.03888804 328.81640625 85.75 C322.36199372 92.86963698 317.57255825 101.12601672 313.1875 109.625 C312.67904541 110.60484863 312.17059082 111.58469727 311.64672852 112.59423828 C304.68854398 126.2463588 298.69729708 140.41197462 294 155 C290.74986929 164.80524172 287.13449061 174.23145974 282.640625 183.53515625 C281.20068198 186.57617877 279.91995129 189.62113597 278.6875 192.75 C260.8004123 236.01584524 226.62652263 270.45394428 183.5625 288.6875 C171.73759816 293.52799333 159.48729974 296.42634971 147 299 C145.89616722 299.25048347 145.89616722 299.25048347 144.77003479 299.50602722 C138.81168805 300.80386875 133.1487811 301.33124351 127.05859375 301.37109375 C126.14091721 301.38211624 125.22324066 301.39313873 124.27775574 301.40449524 C121.33083778 301.43117439 118.38453314 301.43761983 115.4375 301.4375 C113.92975006 301.44009827 113.92975006 301.44009827 112.39154053 301.44274902 C96.6615772 301.43082644 82.21574592 300.22659609 67 296 C65.45169604 295.61117541 63.90225898 295.22682655 62.3515625 294.84765625 C57.0988604 293.53598494 51.99946787 292.10162816 47 290 C47 289.67 47 289.34 47 289 C47.86987549 288.87995605 48.73975098 288.75991211 49.63598633 288.63623047 C65.45617385 286.41456994 80.88214502 284.24171731 95.94970703 278.71118164 C98.23149837 277.91970055 100.53493448 277.26849115 102.859375 276.61328125 C108.28272165 275.00713229 113.28974158 272.77113563 118.375 270.3125 C119.294021 269.86898193 120.21304199 269.42546387 121.15991211 268.96850586 C139.15873836 260.1239948 155.846337 247.22296044 165 229 C165.66 229 166.32 229 167 229 C167.05444001 232.00024947 167.0938836 234.99949039 167.125 238 C167.14175781 238.83917969 167.15851563 239.67835938 167.17578125 240.54296875 C167.23920504 248.72463729 165.39642922 255.36691565 162.375 263 C161.92898437 264.134375 161.48296875 265.26875 161.0234375 266.4375 C160.68570313 267.283125 160.34796875 268.12875 160 269 C169.684519 261.43576031 176.0210469 252.32178346 178 240 C178.93933325 228.52781526 177.22263365 217.82229636 169.6640625 208.79296875 C169.11492187 208.20128906 168.56578125 207.60960937 168 207 C167.47148437 206.41863281 166.94296875 205.83726562 166.3984375 205.23828125 C158.32886707 197.32868027 146.63966942 192.63980907 136.078125 189.05078125 C132.82087305 187.93885133 129.60260581 186.74268905 126.37915039 185.53710938 C119.21250318 182.8599177 112.0222821 180.3126832 104.75 177.9375 C85.50408211 171.57954759 65.16236217 163.86025092 50 150 C48.89398438 149.12021484 48.89398438 149.12021484 47.765625 148.22265625 C40.76530048 142.51377091 35.91146769 135.49090455 31 128 C30.4946875 127.23945313 29.989375 126.47890625 29.46875 125.6953125 C26.50543613 120.81344286 24.61414641 115.5408568 22.6875 110.1875 C22.4203418 109.4452417 22.15318359 108.7029834 21.87792969 107.93823242 C20.66023233 104.41388899 20 101.76672772 20 98 C23.16972553 99.38114402 25.02363246 100.93225894 27.3125 103.5 C41.02837461 117.4947556 60.69029929 125.89556275 79 132 C80.624823 132.54491089 80.624823 132.54491089 82.2824707 133.10083008 C89.99955124 135.62911367 97.76490594 137.74677598 105.66796875 139.61328125 C106.60351593 139.83441086 107.53906311 140.05554047 108.50296021 140.28337097 C112.35597447 141.18913106 116.21018001 142.0889777 120.06860352 142.97143555 C136.61865741 146.77292339 153.34956625 151.14277197 168 160 C161.49270644 151.1066988 151.75584134 146.0288691 142.125 141.0625 C141.12758789 140.54526367 140.13017578 140.02802734 139.10253906 139.49511719 C130.40459317 135.06200617 121.5127446 131.40303641 112.39990234 127.92675781 C72.52488914 112.52843125 30.88354532 92.02967521 10.40625 52.265625 C3.0069845 35.08288622 -0.46444661 18.6552723 0 0 Z " fill="#49A2E6" transform="translate(44,27)"/>
<path d="M0 0 C3.32096562 3.13816017 6.03665557 6.59256038 8.75 10.25 C12.34202188 15.04652418 16.06072255 19.27019352 20.6015625 23.21875 C22 25 22 25 21.9296875 27.48828125 C21.71532351 30.16691697 21.71532351 30.16691697 23.96875 31.94921875 C25.22171875 32.80966797 25.22171875 32.80966797 26.5 33.6875 C28.02875669 34.75149578 29.5368349 35.84746717 31 37 C31 37.66 31 38.32 31 39 C32.65 39.66 34.3 40.32 36 41 C36 41.66 36 42.32 36 43 C36.66 43 37.32 43 38 43 C38 43.66 38 44.32 38 45 C38.71800781 45.08765625 39.43601563 45.1753125 40.17578125 45.265625 C43.56208 46.14615635 45.44315419 47.59343874 48.1875 49.75 C53.2023755 53.53841138 58.28128348 56.4197548 64 59 C63.67 60.32 63.34 61.64 63 63 C63.66 63 64.32 63 65 63 C67.75888992 65.2365401 69.05560444 67.82559933 70.5625 71 C71.9221152 73.84629725 73.24415423 76.36623134 75 79 C74.505 80.485 74.505 80.485 74 82 C72.35 81.34 70.7 80.68 69 80 C69 79.34 69 78.68 69 78 C67.35 77.67 65.7 77.34 64 77 C64 77.66 64 78.32 64 79 C64.71824951 79.27618164 65.43649902 79.55236328 66.17651367 79.83691406 C68.92868179 80.97062171 71.53295884 82.24173685 74.17578125 83.609375 C84.50471007 88.89926634 94.6871274 93.93030804 105.63671875 97.7890625 C109.43788342 99.15765837 113.03401256 100.80026809 116.6875 102.515625 C122.37577538 105.06461633 128.16709561 107.36720351 133.94580078 109.70239258 C165.58558558 122.52181524 198.13711172 139.89638352 212.19091797 172.89599609 C221.01775725 195.85003983 219.71946471 220.64965916 210 243 C206.19919906 250.65390649 201.45199322 257.43772245 196 264 C196.33 264.66 196.66 265.32 197 266 C197.99 265.34 198.98 264.68 200 264 C196.45034106 272.72373808 186.18938774 278.86438761 178.41015625 283.52734375 C175.29509002 285.43071485 172.58164732 287.41835268 170 290 C173.19158473 288.92845874 176.37739515 287.84063688 179.5625 286.75 C180.45775391 286.44964844 181.35300781 286.14929688 182.27539062 285.83984375 C191.14012068 282.90034115 191.14012068 282.90034115 198.5 277.375 C200 276 200 276 203.4375 275.0625 C207.25279286 273.92460564 208.35386802 272.82254078 211 270 C211.72960937 269.7421875 212.45921875 269.484375 213.2109375 269.21875 C216.92006234 267.59795595 219.50900549 265.18564936 222.5 262.5 C226.15939279 259.21418791 229.20773863 256.50205207 234 255 C230.03072686 259.97991678 225.8713673 264.03525125 220.75 267.8125 C219.70900146 268.58170776 219.70900146 268.58170776 218.64697266 269.36645508 C197.06889225 284.95115979 172.90153184 293.66165734 147 299 C145.89616722 299.25048347 145.89616722 299.25048347 144.77003479 299.50602722 C138.81168805 300.80386875 133.1487811 301.33124351 127.05859375 301.37109375 C126.14091721 301.38211624 125.22324066 301.39313873 124.27775574 301.40449524 C121.33083778 301.43117439 118.38453314 301.43761983 115.4375 301.4375 C113.92975006 301.44009827 113.92975006 301.44009827 112.39154053 301.44274902 C96.6615772 301.43082644 82.21574592 300.22659609 67 296 C65.45169604 295.61117541 63.90225898 295.22682655 62.3515625 294.84765625 C57.0988604 293.53598494 51.99946787 292.10162816 47 290 C47 289.67 47 289.34 47 289 C47.86987549 288.87995605 48.73975098 288.75991211 49.63598633 288.63623047 C65.45617385 286.41456994 80.88214502 284.24171731 95.94970703 278.71118164 C98.23149837 277.91970055 100.53493448 277.26849115 102.859375 276.61328125 C108.28272165 275.00713229 113.28974158 272.77113563 118.375 270.3125 C119.294021 269.86898193 120.21304199 269.42546387 121.15991211 268.96850586 C139.15873836 260.1239948 155.846337 247.22296044 165 229 C165.66 229 166.32 229 167 229 C167.05444001 232.00024947 167.0938836 234.99949039 167.125 238 C167.14175781 238.83917969 167.15851563 239.67835938 167.17578125 240.54296875 C167.23920504 248.72463729 165.39642922 255.36691565 162.375 263 C161.92898437 264.134375 161.48296875 265.26875 161.0234375 266.4375 C160.68570313 267.283125 160.34796875 268.12875 160 269 C169.684519 261.43576031 176.0210469 252.32178346 178 240 C178.93933325 228.52781526 177.22263365 217.82229636 169.6640625 208.79296875 C169.11492187 208.20128906 168.56578125 207.60960937 168 207 C167.47148437 206.41863281 166.94296875 205.83726562 166.3984375 205.23828125 C158.32886707 197.32868027 146.63966942 192.63980907 136.078125 189.05078125 C132.82087305 187.93885133 129.60260581 186.74268905 126.37915039 185.53710938 C119.21250318 182.8599177 112.0222821 180.3126832 104.75 177.9375 C85.50408211 171.57954759 65.16236217 163.86025092 50 150 C48.89398438 149.12021484 48.89398438 149.12021484 47.765625 148.22265625 C40.76530048 142.51377091 35.91146769 135.49090455 31 128 C30.4946875 127.23945313 29.989375 126.47890625 29.46875 125.6953125 C26.50543613 120.81344286 24.61414641 115.5408568 22.6875 110.1875 C22.4203418 109.4452417 22.15318359 108.7029834 21.87792969 107.93823242 C20.66023233 104.41388899 20 101.76672772 20 98 C23.16972553 99.38114402 25.02363246 100.93225894 27.3125 103.5 C41.02837461 117.4947556 60.69029929 125.89556275 79 132 C80.624823 132.54491089 80.624823 132.54491089 82.2824707 133.10083008 C89.99955124 135.62911367 97.76490594 137.74677598 105.66796875 139.61328125 C106.60351593 139.83441086 107.53906311 140.05554047 108.50296021 140.28337097 C112.35597447 141.18913106 116.21018001 142.0889777 120.06860352 142.97143555 C136.61865741 146.77292339 153.34956625 151.14277197 168 160 C161.49270644 151.1066988 151.75584134 146.0288691 142.125 141.0625 C141.12758789 140.54526367 140.13017578 140.02802734 139.10253906 139.49511719 C130.40459317 135.06200617 121.5127446 131.40303641 112.39990234 127.92675781 C72.52488914 112.52843125 30.88354532 92.02967521 10.40625 52.265625 C3.0069845 35.08288622 -0.46444661 18.6552723 0 0 Z M69 63 C70.98 63.495 70.98 63.495 73 64 C72.34 65.98 71.68 67.96 71 70 C70.87625 69.360625 70.7525 68.72125 70.625 68.0625 C70.315625 67.0415625 70.315625 67.0415625 70 66 C69.34 65.67 68.68 65.34 68 65 C68.33 64.34 68.66 63.68 69 63 Z " fill="#3A83D4" transform="translate(44,27)"/>
<path d="M0 0 C4.1429521 1.59344311 7.27936758 4.55645668 10 8 C10.29519531 8.81855469 10.59039062 9.63710937 10.89453125 10.48046875 C12.26694222 13.60840189 13.73507384 14.62389876 16.5625 16.5 C17.45582031 17.09425781 18.34914063 17.68851563 19.26953125 18.30078125 C22.3873468 20.24105273 25.54549105 22.05536267 28.796875 23.76171875 C31 25 31 25 33.64453125 26.890625 C37.88617186 29.55708127 42.27242326 31.2730138 46.9375 33.0625 C63.775 39.625 63.775 39.625 65.125 41.875 C65.41375 42.57625 65.7025 43.2775 66 44 C67.62746694 45.70496537 69.28891311 47.37897032 71 49 C71 48.34 71 47.68 71 47 C73.37948772 47.17625835 74.70225849 47.69719773 76.37890625 49.40234375 C77.62115486 50.90649092 78.81376056 52.45129851 80 54 C79.505 54.99 79.505 54.99 79 56 C72.375 55.25 72.375 55.25 69 53 C67.33871537 52.64080332 65.67099977 52.31088368 64 52 C61.99255385 51.35610218 59.99054876 50.69437747 58 50 C58.495 52.97 58.495 52.97 59 56 C49.58997722 55.03644647 49.58997722 55.03644647 45 54 C45 53.34 45 52.68 45 52 C42.03 51.67 39.06 51.34 36 51 C36 50.34 36 49.68 36 49 C35.01 49 34.02 49 33 49 C33 49.66 33 50.32 33 51 C33.66 51 34.32 51 35 51 C36.625 52.375 36.625 52.375 38 54 C38 54.66 38 55.32 38 56 C38.99 56 39.98 56 41 56 C41 56.66 41 57.32 41 58 C41.66386719 58.24492187 42.32773438 58.48984375 43.01171875 58.7421875 C46.7438397 60.31309331 50.25449907 62.19789136 53.8125 64.125 C54.50537109 64.49753906 55.19824219 64.87007813 55.91210938 65.25390625 C57.60934836 66.16690377 59.30485138 67.08312716 61 68 C61.33 67.34 61.66 66.68 62 66 C62.99 66.020625 63.98 66.04125 65 66.0625 C69.06568074 66.07081428 72.97662176 65.56468467 77 65 C77.33 65.99 77.66 66.98 78 68 C76.35 68.33 74.7 68.66 73 69 C73.66 69.66 74.32 70.32 75 71 C74.34 71 73.68 71 73 71 C75.58573776 74.23897677 78.22622856 74.79301935 82.1875 75.6875 C83.27417969 75.93886719 84.36085938 76.19023437 85.48046875 76.44921875 C86.31191406 76.63097656 87.14335937 76.81273437 88 77 C88 77.66 88 78.32 88 79 C92.62 79.99 97.24 80.98 102 82 C102 82.33 102 82.66 102 83 C103.11375 83.103125 104.2275 83.20625 105.375 83.3125 C106.57125 83.539375 107.7675 83.76625 109 84 C109.99 85.485 109.99 85.485 111 87 C103.26969936 86.50363333 96.64060574 84.42538771 89.375 81.8125 C88.21782471 81.40177246 87.06064941 80.99104492 85.8684082 80.56787109 C82.57421509 79.39119206 79.2863544 78.19836555 76 77 C75.23252441 76.72494629 74.46504883 76.44989258 73.67431641 76.16650391 C58.21236049 70.59037535 42.19688467 63.14944228 30 52 C29.26265625 51.41347656 28.5253125 50.82695312 27.765625 50.22265625 C20.76530048 44.51377091 15.91146769 37.49090455 11 30 C10.4946875 29.23945313 9.989375 28.47890625 9.46875 27.6953125 C6.50543613 22.81344286 4.61414641 17.5408568 2.6875 12.1875 C2.4203418 11.4452417 2.15318359 10.7029834 1.87792969 9.93823242 C0.66023233 6.41388899 0 3.76672772 0 0 Z " fill="#377DCE" transform="translate(64,125)"/>
<path d="M0 0 C0.33 0 0.66 0 1 0 C0.85769192 1.41702513 0.71099254 2.8336096 0.5625 4.25 C0.44068359 5.43335938 0.44068359 5.43335938 0.31640625 6.640625 C0.02365007 8.82364639 -0.42064419 10.8773182 -1 13 C-1.66 13 -2.32 13 -3 13 C-3 13.99 -3 14.98 -3 16 C-3.66 16 -4.32 16 -5 16 C-5.185625 17.3921875 -5.185625 17.3921875 -5.375 18.8125 C-6 22 -6 22 -8 25 C-8.66 25 -9.32 25 -10 25 C-10.0825 25.721875 -10.165 26.44375 -10.25 27.1875 C-12.85550033 36.95812623 -24.64562733 43.2376275 -32.65625 48.10546875 C-55.02246906 60.77791763 -83.70702387 64.32338183 -109 60 C-109.66 59.67 -110.32 59.34 -111 59 C-111 58.34 -111 57.68 -111 57 C-109.96782349 56.86537354 -109.96782349 56.86537354 -108.91479492 56.72802734 C-94.85840953 54.84978831 -81.52159618 52.48863568 -68.14697266 47.72729492 C-65.82269589 46.93993758 -63.47893029 46.27541879 -61.1171875 45.609375 C-55.70327335 44.00319167 -50.70215467 41.76721761 -45.625 39.3125 C-44.24646851 38.6472229 -44.24646851 38.6472229 -42.84008789 37.96850586 C-25.78258705 29.58655624 -8.96013099 17.20345151 0 0 Z " fill="#4DA8E7" transform="translate(208,258)"/>
<path d="M0 0 C1.625 1.21875 1.625 1.21875 3.25 2.4375 C3.95979004 2.96738525 4.66958008 3.49727051 5.40087891 4.04321289 C7.15849158 5.36645782 8.90635784 6.70273268 10.64501953 8.05078125 C17.69378705 13.46569664 24.8945072 18.16355362 32.625 22.5625 C33.75583008 23.20944824 34.88666016 23.85639648 36.05175781 24.52294922 C49.53671976 32.13431647 63.32733218 38.09164326 78 43 C79.1653125 43.39316406 80.330625 43.78632812 81.53125 44.19140625 C84.35122588 45.13688882 87.17375882 46.07344841 90 47 C89.01 47.66 88.02 48.32 87 49 C84.73046875 48.35546875 84.73046875 48.35546875 82.1875 47.1875 C78.43422408 45.55540198 75.10573778 44.43218292 71 44 C71 43.34 71 42.68 71 42 C70.41992188 41.89042969 69.83984375 41.78085938 69.2421875 41.66796875 C64.40253723 40.6856635 60.34633884 39.45178089 56 37 C56 37.99 56 38.98 56 40 C59.10181497 41.03706673 62.20350695 42.06385001 65.32421875 43.04296875 C74.50315223 46.16657794 74.50315223 46.16657794 76.9375 50.25 C77.288125 51.4875 77.63875 52.725 78 54 C78.95296434 55.57117634 79.9570334 57.11207013 81 58.625 C81.51820313 59.38167969 82.03640625 60.13835937 82.5703125 60.91796875 C83.04210937 61.60503906 83.51390625 62.29210937 84 63 C87 67.7 87 67.7 87 70 C86.01 70 85.02 70 84 70 C84 68.68 84 67.36 84 66 C83.39671875 65.75507812 82.7934375 65.51015625 82.171875 65.2578125 C79.61035221 63.77434067 78.72499008 62.41526069 77.25 59.875 C76.82203125 59.15054688 76.3940625 58.42609375 75.953125 57.6796875 C75.63859375 57.12539062 75.3240625 56.57109375 75 56 C76.38264837 58.86867231 77.92148553 61.56024032 79.625 64.25 C80.07101563 64.95640625 80.51703125 65.6628125 80.9765625 66.390625 C81.48316406 67.18726562 81.48316406 67.18726562 82 68 C72.422824 66.34690395 60.96378377 62.70927065 53 57 C51.125 53.625 51.125 53.625 50 50 C49.29920338 48.73387673 48.56962997 47.48326325 47.8125 46.25 C46 43 46 43 46 40 C45.01 39.67 44.02 39.34 43 39 C43 38.34 43 37.68 43 37 C42.34 37 41.68 37 41 37 C41.33 35.68 41.66 34.36 42 33 C41.154375 32.76152344 40.30875 32.52304688 39.4375 32.27734375 C35.53175721 30.82600523 32.43308179 28.88245374 29 26.5625 C24.77365484 23.73417076 20.6107817 21.18590413 16 19 C16 18.34 16 17.68 16 17 C15.34 17 14.68 17 14 17 C14 16.34 14 15.68 14 15 C11.525 14.01 11.525 14.01 9 13 C9 12.34 9 11.68 9 11 C8.46375 10.773125 7.9275 10.54625 7.375 10.3125 C4.21499137 8.56617944 1.7323017 6.3597151 -1 4 C-0.67 2.68 -0.34 1.36 0 0 Z M47 37 C46.67 37.99 46.34 38.98 46 40 C46.66 40 47.32 40 48 40 C48.33 41.32 48.66 42.64 49 44 C49.66 42.02 50.32 40.04 51 38 C49.68 37.67 48.36 37.34 47 37 Z " fill="#469CDB" transform="translate(66,53)"/>
<path d="M0 0 C10.55808656 3.07517084 10.55808656 3.07517084 15 5 C15 5.66 15 6.32 15 7 C16.1446875 6.87625 16.1446875 6.87625 17.3125 6.75 C21.69390967 7.04704472 25.0773497 8.38512455 29.12109375 10.02734375 C32.01458681 11.1093348 32.01458681 11.1093348 35.24584961 11.421875 C39.0297608 12.00458305 42.33065404 12.97272995 45.9453125 14.22265625 C46.58930496 14.44384125 47.23329742 14.66502625 47.89680481 14.89291382 C49.97529717 15.60931035 52.05024798 16.33534899 54.125 17.0625 C55.56318851 17.56205677 57.00142126 18.0614862 58.43969727 18.56079102 C75.00296368 24.33266328 91.60285815 30.13407997 107.25 38.125 C109.96220192 39.50980151 112.6065887 40.85027818 115.453125 41.93359375 C126.56643773 46.58686733 136.14257122 55.02592665 145 63 C145.75023437 63.65484375 146.50046875 64.3096875 147.2734375 64.984375 C165.1309379 81.50079829 172.13327867 105.82124181 173.75 129.25 C173.80679932 129.98903564 173.86359863 130.72807129 173.92211914 131.48950195 C174.03165101 133.32324976 174.02516224 135.16315621 174 137 C173.34 137.66 172.68 138.32 172 139 C171.46425839 135.46042297 170.94908859 131.91814195 170.4375 128.375 C170.28603516 127.37597656 170.13457031 126.37695312 169.97851562 125.34765625 C169.26304621 120.32273154 168.71161276 115.99996637 170 111 C169.34 111 168.68 111 168 111 C165.39981184 107.09971775 165.84914486 103.52565431 166 99 C165.01 99 164.02 99 163 99 C162.89042969 98.34773438 162.78085937 97.69546875 162.66796875 97.0234375 C161.33824384 89.64824449 161.33824384 89.64824449 158 83 C155.44278263 81.57442644 155.44278263 81.57442644 153 81 C153 80.34 153 79.68 153 79 C152.34 79 151.68 79 151 79 C150.67 77.68 150.34 76.36 150 75 C150.66 74.67 151.32 74.34 152 74 C150.90344712 72.68113228 149.79746577 71.37009943 148.6875 70.0625 C148.07261719 69.33160156 147.45773437 68.60070312 146.82421875 67.84765625 C145.04024481 65.76179634 145.04024481 65.76179634 142 65 C140.17578125 63.15234375 140.17578125 63.15234375 138.3125 60.9375 C137.37857422 59.83728516 137.37857422 59.83728516 136.42578125 58.71484375 C135.95527344 58.14894531 135.48476563 57.58304688 135 57 C134.01 57.66 133.02 58.32 132 59 C131.01 58.34 130.02 57.68 129 57 C129 56.34 129 55.68 129 55 C128.01 55 127.02 55 126 55 C126 54.34 126 53.68 126 53 C125.44183594 52.89558594 124.88367188 52.79117188 124.30859375 52.68359375 C121.55501438 51.86823607 119.49024733 50.59246712 117.0625 49.0625 C113.77618046 46.99521707 110.63206323 45.37014418 107 44 C105.845 43.484375 104.69 42.96875 103.5 42.4375 C100.59272667 41.24344131 98.0872655 40.4677675 95 40 C95 39.34 95 38.68 95 38 C94.38125 37.690625 93.7625 37.38125 93.125 37.0625 C91.75 36.375 90.375 35.6875 89 35 C88.505 35.99 88.505 35.99 88 37 C88 36.01 88 35.02 88 34 C87.02546875 33.90460938 86.0509375 33.80921875 85.046875 33.7109375 C80.48771835 33.05799295 76.48305502 31.37967395 72.25 29.625 C65.59394199 26.94277929 59.00651217 24.62044885 52 23 C52 22.34 52 21.68 52 21 C50.948125 20.938125 49.89625 20.87625 48.8125 20.8125 C43.55491128 20.17635048 38.91509519 18.15726595 34.03125 16.19140625 C30.94867365 14.92111458 30.94867365 14.92111458 27.4375 14 C23.16578356 12.75731885 19.17299686 11.04399112 15.08203125 9.3046875 C11.39693954 7.74471205 7.68282181 6.26635683 3.9609375 4.796875 C2 4 2 4 0 3 C0 2.01 0 1.02 0 0 Z " fill="#65C1D7" transform="translate(122,90)"/>
<path d="M0 0 C2.86767007 2.13960876 5.59417224 4.3446316 8 7 C8 7.66 8 8.32 8 9 C8.54164795 8.78996338 9.0832959 8.57992676 9.64135742 8.36352539 C20.0901505 4.56162138 32.47089449 3.74283515 42.75 8.5 C47.83741436 11.48671236 51.56414229 15.23335233 55 20 C53.1953125 20.640625 53.1953125 20.640625 51 21 C47.63692285 18.57858445 45.30190493 16.4528574 43 13 C33.43141701 9.14400387 24.93570018 9.87927047 14.98828125 11.5625 C11.30156024 12.10225523 8.55555353 12.18518451 5 11 C4.2575 10.21625 3.515 9.4325 2.75 8.625 C-1.00826364 5.03756653 -4.34127242 2.95724269 -9.671875 3.04296875 C-12.13446032 3.28296647 -14.5599919 3.59251374 -17 4 C-17 3.34 -17 2.68 -17 2 C-17.969375 2.28875 -18.93875 2.5775 -19.9375 2.875 C-22.63216639 3.65333989 -25.31133623 4.27154083 -28.0625 4.8125 C-36.27125275 6.59153003 -44.16665706 9.77378033 -51.875 13.0625 C-65.17059354 18.45082951 -78.78200854 20.03553178 -93 20.125 C-93.74306396 20.12983398 -94.48612793 20.13466797 -95.25170898 20.13964844 C-98.43258477 20.1294076 -100.96083148 20.01305617 -104 19 C-104 18.01 -104 17.02 -104 16 C-103.38294189 16.02618408 -102.76588379 16.05236816 -102.13012695 16.0793457 C-82.91516343 16.78075136 -65.96003937 14.64590016 -48.41015625 6.55078125 C-44.53424969 4.78819831 -40.6092994 3.24694302 -36.625 1.75 C-35.98264404 1.50386963 -35.34028809 1.25773926 -34.6784668 1.00415039 C-23.91726004 -3.02417575 -10.50700821 -6.37056498 0 0 Z " fill="#60C7E9" transform="translate(373,62)"/>
<path d="M0 0 C2.475 0.495 2.475 0.495 5 1 C5 1.66 5 2.32 5 3 C5.87398438 3.27070312 6.74796875 3.54140625 7.6484375 3.8203125 C10.83929221 4.94343385 13.64263963 6.28933733 16.625 7.875 C26.84813583 13.09724754 26.84813583 13.09724754 38 15 C35.69 11.37 33.38 7.74 31 4 C34.99359753 5.99679877 35.59535434 6.45496852 37.625 10.0625 C39.2426718 13.1157672 39.2426718 13.1157672 42 15 C42.08378906 15.6290625 42.16757813 16.258125 42.25390625 16.90625 C42.83440447 19.28745659 42.83440447 19.28745659 45.58984375 20.34375 C46.69457031 20.7253125 47.79929688 21.106875 48.9375 21.5 C50.11699219 21.92152344 51.29648438 22.34304687 52.51171875 22.77734375 C53.66285156 23.18082031 54.81398437 23.58429688 56 24 C57.7546222 24.67561616 59.50522617 25.36184279 61.25 26.0625 C62.03890625 26.37703125 62.8278125 26.6915625 63.640625 27.015625 C66.87068154 28.36326448 70.03297463 29.84798246 73.1875 31.36328125 C73.785625 31.57339844 74.38375 31.78351563 75 32 C75.99 31.505 75.99 31.505 77 31 C76.01 29.68 75.02 28.36 74 27 C74.33 26.34 74.66 25.68 75 25 C75.99 25.99 75.99 25.99 77 27 C77.33 25.35 77.66 23.7 78 22 C78.66 22 79.32 22 80 22 C80.495 24.475 80.495 24.475 81 27 C81.495 25.515 81.495 25.515 82 24 C84.0625 23.3125 84.0625 23.3125 86 23 C86.28875 23.804375 86.5775 24.60875 86.875 25.4375 C87.73262568 28.1326468 87.73262568 28.1326468 90 29 C90 29.99 90 30.98 90 32 C89.67 32.33 89.34 32.66 89 33 C90.32 33.66 91.64 34.32 93 35 C93.99 33.68 94.98 32.36 96 31 C96 31.99 96 32.98 96 34 C97.485 34.495 97.485 34.495 99 35 C100.05369534 38.10254738 100.82552603 41.17124862 101.5 44.375 C101.665 44.91125 101.83 45.4475 102 46 C102.66 46.33 103.32 46.66 104 47 C103.505 47.99 103.505 47.99 103 49 C102.23876831 48.58488159 102.23876831 48.58488159 101.4621582 48.16137695 C92.18217568 43.12463054 83.05362951 38.35869195 73.10107422 34.78125 C68.17647484 32.95011846 63.31333761 30.95633256 58.4375 29 C57.3964209 28.58427734 56.3553418 28.16855469 55.28271484 27.74023438 C52.18548559 26.5007571 49.09181191 25.2529264 46 24 C45.00911377 23.59910156 44.01822754 23.19820312 42.99731445 22.78515625 C35.64471521 19.7701872 28.46694816 16.45659421 21.3125 13 C20.24966797 12.49210937 19.18683594 11.98421875 18.09179688 11.4609375 C11.94246145 8.50197289 5.91691419 5.40097945 0 2 C0 1.34 0 0.68 0 0 Z " fill="#4FADE5" transform="translate(108,104)"/>
<path d="M0 0 C0.64324219 0.4125 1.28648438 0.825 1.94921875 1.25 C3.87983785 2.48383361 5.81374835 3.71252447 7.75 4.9375 C9.8627283 6.27826988 11.96743492 7.63179423 14.0625 9 C32.93735616 21.07990794 54.23724725 27.47212423 75.87890625 32.671875 C76.84902145 32.90525574 77.81913666 33.13863647 78.81864929 33.37908936 C83.68034843 34.54274178 88.54613192 35.68330179 93.4206543 36.79199219 C108.85204965 40.36498388 124.35385714 44.74713594 138 53 C133.99191229 47.69898077 129.33731159 43.93030788 124 40 C127.77794224 40 128.63685168 41.06585881 131.5 43.4375 C134.10808094 45.58916677 135.77015045 46.92338348 139 48 C139.73046875 49.84765625 139.73046875 49.84765625 140.1875 52.0625 C140.34605469 52.79597656 140.50460938 53.52945313 140.66796875 54.28515625 C140.77753906 54.85105469 140.88710937 55.41695312 141 56 C138.03 55.505 138.03 55.505 135 55 C135 54.34 135 53.68 135 53 C132.69 52.67 130.38 52.34 128 52 C128 51.34 128 50.68 128 50 C127.00419922 49.81824219 127.00419922 49.81824219 125.98828125 49.6328125 C123.10378299 49.02197757 120.27781279 48.27413562 117.43579102 47.49194336 C110.62739709 45.6236828 103.8211064 43.93131701 96.8984375 42.53515625 C81.91633733 39.50049376 67.38910558 35.83122026 52.875 31 C52.12872345 30.75482635 51.3824469 30.50965271 50.61355591 30.25704956 C32.92375949 24.40643576 13.51474602 16.14948261 0 3 C0 2.01 0 1.02 0 0 Z " fill="#4D9BCD" transform="translate(74,134)"/>
<path d="M0 0 C3.13445399 1.11260316 6.22307912 2.33112072 9.3125 3.5625 C10.14845703 3.89185547 10.98441406 4.22121094 11.84570312 4.56054688 C13.89863546 5.36998877 15.94997286 6.18323457 18 7 C17.67 8.32 17.34 9.64 17 11 C14.69 10.67 12.38 10.34 10 10 C10 10.66 10 11.32 10 12 C5.22886284 15.18075811 2.57592361 16.25165051 -3.25 16.125 C-4.32765625 16.10695312 -5.4053125 16.08890625 -6.515625 16.0703125 C-7.33546875 16.04710937 -8.1553125 16.02390625 -9 16 C-8.34 15.34 -7.68 14.68 -7 14 C-11.29 13.67 -15.58 13.34 -20 13 C-20 12.34 -20 11.68 -20 11 C-18.02 11 -16.04 11 -14 11 C-14 10.34 -14 9.68 -14 9 C-18.29 9 -22.58 9 -27 9 C-26.67 8.34 -26.34 7.68 -26 7 C-23.85546875 6.40234375 -23.85546875 6.40234375 -21.1875 5.9375 C-18.09087526 5.38404122 -15.04281065 4.80148625 -12 4 C-13.47146484 4.24556641 -13.47146484 4.24556641 -14.97265625 4.49609375 C-19.14118966 5.09159852 -23.23401136 5.11249575 -27.4375 5.0625 C-28.16904297 5.05798828 -28.90058594 5.05347656 -29.65429688 5.04882812 C-31.43623419 5.03718148 -33.21812863 5.01925191 -35 5 C-34.67 4.34 -34.34 3.68 -34 3 C-31.63671875 2.40234375 -31.63671875 2.40234375 -28.6875 1.9375 C-24.82499561 1.33779846 -24.82499561 1.33779846 -21.02734375 0.44140625 C-18.27948445 -0.15687526 -15.68271831 -0.05518857 -12.875 0 C-8.05194318 0.09433852 -4.66282073 -1.23808054 0 0 Z " fill="#3B87D5" transform="translate(154,127)"/>
<path d="M0 0 C1.625 1.21875 1.625 1.21875 3.25 2.4375 C3.95979004 2.96738525 4.66958008 3.49727051 5.40087891 4.04321289 C7.15849158 5.36645782 8.90635784 6.70273268 10.64501953 8.05078125 C17.69378705 13.46569664 24.8945072 18.16355362 32.625 22.5625 C33.75583008 23.20944824 34.88666016 23.85639648 36.05175781 24.52294922 C49.53671976 32.13431647 63.32733218 38.09164326 78 43 C79.1653125 43.39316406 80.330625 43.78632812 81.53125 44.19140625 C84.35122588 45.13688882 87.17375882 46.07344841 90 47 C89.01 47.66 88.02 48.32 87 49 C84.73046875 48.35546875 84.73046875 48.35546875 82.1875 47.1875 C78.43422408 45.55540198 75.10573778 44.43218292 71 44 C71 43.34 71 42.68 71 42 C70.41992188 41.89042969 69.83984375 41.78085938 69.2421875 41.66796875 C64.40253723 40.6856635 60.34633884 39.45178089 56 37 C55.67 37.99 55.34 38.98 55 40 C52.36 39.01 49.72 38.02 47 37 C46.67 37.99 46.34 38.98 46 40 C45.01 39.67 44.02 39.34 43 39 C43 38.34 43 37.68 43 37 C42.34 37 41.68 37 41 37 C41.33 35.68 41.66 34.36 42 33 C41.154375 32.76152344 40.30875 32.52304688 39.4375 32.27734375 C35.53175721 30.82600523 32.43308179 28.88245374 29 26.5625 C24.77365484 23.73417076 20.6107817 21.18590413 16 19 C16 18.34 16 17.68 16 17 C15.34 17 14.68 17 14 17 C14 16.34 14 15.68 14 15 C11.525 14.01 11.525 14.01 9 13 C9 12.34 9 11.68 9 11 C8.46375 10.773125 7.9275 10.54625 7.375 10.3125 C4.21499137 8.56617944 1.7323017 6.3597151 -1 4 C-0.67 2.68 -0.34 1.36 0 0 Z " fill="#4E9ED4" transform="translate(66,53)"/>
<path d="M0 0 C0.66 0 1.32 0 2 0 C2.391875 0.886875 2.78375 1.77375 3.1875 2.6875 C4.85034399 6.10954351 4.85034399 6.10954351 7.6875 8.625 C10 11 10 11 10 15 C10.66 15 11.32 15 12 15 C13.82358373 16.97180605 15.47002794 19.05618027 17.1484375 21.15234375 C19.13614823 23.135861 20.26125955 23.61995452 23 24 C23 24.66 23 25.32 23 26 C23.66 26 24.32 26 25 26 C26.625 27.375 26.625 27.375 28 29 C28 29.66 28 30.32 28 31 C28.99 31 29.98 31 31 31 C31 31.66 31 32.32 31 33 C31.66386719 33.24492187 32.32773438 33.48984375 33.01171875 33.7421875 C36.7438397 35.31309331 40.25449907 37.19789136 43.8125 39.125 C44.50537109 39.49753906 45.19824219 39.87007812 45.91210938 40.25390625 C47.60934836 41.16690377 49.30485138 42.08312716 51 43 C51.495 42.01 51.495 42.01 52 41 C52.99 41.020625 53.98 41.04125 55 41.0625 C59.06568074 41.07081428 62.97662176 40.56468467 67 40 C67.33 40.99 67.66 41.98 68 43 C66.35 43.33 64.7 43.66 63 44 C63.66 44.66 64.32 45.32 65 46 C64.34 46 63.68 46 63 46 C65.58573776 49.23897677 68.22622856 49.79301935 72.1875 50.6875 C73.27417969 50.93886719 74.36085938 51.19023437 75.48046875 51.44921875 C76.31191406 51.63097656 77.14335937 51.81273437 78 52 C78 52.66 78 53.32 78 54 C84.93 55.485 84.93 55.485 92 57 C92 57.33 92 57.66 92 58 C93.11375 58.103125 94.2275 58.20625 95.375 58.3125 C96.57125 58.539375 97.7675 58.76625 99 59 C99.66 59.99 100.32 60.98 101 62 C93.26969936 61.50363333 86.64060574 59.42538771 79.375 56.8125 C78.21782471 56.40177246 77.06064941 55.99104492 75.8684082 55.56787109 C72.57421509 54.39119206 69.2863544 53.19836555 66 52 C65.23252441 51.72494629 64.46504883 51.44989258 63.67431641 51.16650391 C48.21236049 45.59037535 32.19688467 38.14944228 20 27 C19.26265625 26.41347656 18.5253125 25.82695312 17.765625 25.22265625 C12.90986751 21.2627023 9.15663495 16.86070227 5.5 11.8125 C5.06623047 11.21808105 4.63246094 10.62366211 4.18554688 10.01123047 C1.88674678 6.72077303 0.42355898 4.01624678 0 0 Z M23 22 C24.98 22.99 24.98 22.99 27 24 C25.68 24 24.36 24 23 24 C23 23.34 23 22.68 23 22 Z " fill="#396FB2" transform="translate(74,150)"/>
<path d="M0 0 C0.4846875 0.39832031 0.969375 0.79664062 1.46875 1.20703125 C2.1390625 1.73683594 2.809375 2.26664062 3.5 2.8125 C4.1496875 3.33457031 4.799375 3.85664062 5.46875 4.39453125 C11.9699871 8.51800108 18.07437924 9.52489739 25.6875 9.4375 C26.55874512 9.43500244 27.42999023 9.43250488 28.32763672 9.42993164 C34.96007053 9.29218957 40.44640432 8.15092277 46.6640625 5.77734375 C49 5 49 5 51 6 C50.02160156 6.64066406 49.04320312 7.28132813 48.03515625 7.94140625 C35.46243011 15.01376005 35.46243011 15.01376005 26 25 C25.01 24.67 24.02 24.34 23 24 C23.66 22.68 24.32 21.36 25 20 C23.76636719 19.61521484 23.76636719 19.61521484 22.5078125 19.22265625 C13.04574066 15.97758081 5.63300679 11.44951018 0 3 C0 2.01 0 1.02 0 0 Z " fill="#3E88D4" transform="translate(270,79)"/>
<path d="M0 0 C10.55808656 3.07517084 10.55808656 3.07517084 15 5 C15 5.66 15 6.32 15 7 C16.1446875 6.87625 16.1446875 6.87625 17.3125 6.75 C21.69390967 7.04704472 25.0773497 8.38512455 29.12109375 10.02734375 C32.01364084 11.10953066 32.01364084 11.10953066 35.24072266 11.41796875 C39.06105651 12.00945309 42.38352367 13.00577053 46.02734375 14.28515625 C46.66112442 14.50570175 47.29490509 14.72624725 47.94789124 14.95347595 C49.9465772 15.6505118 51.94202627 16.35632764 53.9375 17.0625 C55.30252901 17.54030066 56.66776176 18.01751967 58.03320312 18.49414062 C61.35784861 19.65605183 64.67965369 20.82585132 68 22 C68 22.99 68 23.98 68 25 C69.65 25.33 71.3 25.66 73 26 C73 26.99 73 27.98 73 29 C67.87008959 28.44541509 63.37225656 26.76085964 58.5859375 24.9375 C56.39648112 24.14373938 54.26876212 23.51127034 52 23 C52 22.34 52 21.68 52 21 C50.948125 20.938125 49.89625 20.87625 48.8125 20.8125 C43.55491128 20.17635048 38.91509519 18.15726595 34.03125 16.19140625 C30.94867365 14.92111458 30.94867365 14.92111458 27.4375 14 C23.16578356 12.75731885 19.17299686 11.04399112 15.08203125 9.3046875 C11.39693954 7.74471205 7.68282181 6.26635683 3.9609375 4.796875 C2 4 2 4 0 3 C0 2.01 0 1.02 0 0 Z " fill="#59BFE5" transform="translate(122,90)"/>
<path d="M0 0 C0.99 0.495 0.99 0.495 2 1 C-2.62281879 5.89050784 -7.40914326 10.04390617 -12.9375 13.875 C-13.67911377 14.3903833 -14.42072754 14.9057666 -15.18481445 15.43676758 C-35.98059736 29.6796379 -57.97222091 38.23149298 -82.60009766 43.47851562 C-84.10841899 43.8062648 -85.61095045 44.16341683 -87.10205078 44.56225586 C-90.13995882 45.26292078 -93.14249511 45.09127319 -96.25 45.0625 C-97.51328125 45.05347656 -98.7765625 45.04445313 -100.078125 45.03515625 C-101.04234375 45.02355469 -102.0065625 45.01195312 -103 45 C-103 44.67 -103 44.34 -103 44 C-102.15695313 43.87882812 -101.31390625 43.75765625 -100.4453125 43.6328125 C-98.80175781 43.38144531 -98.80175781 43.38144531 -97.125 43.125 C-96.03445312 42.96257812 -94.94390625 42.80015625 -93.8203125 42.6328125 C-90.88067286 42.23743487 -90.88067286 42.23743487 -89 40 C-87.01354224 39.59367909 -85.00946222 39.27050453 -83 39 C-75.06429161 37.92731114 -67.71897149 34.74286126 -60.875 30.625 C-59.92625 30.08875 -58.9775 29.5525 -58 29 C-57.34 29.33 -56.68 29.66 -56 30 C-56.61875 30.45375 -57.2375 30.9075 -57.875 31.375 C-60.05919833 32.97108919 -60.05919833 32.97108919 -62 35 C-58.80841527 33.92845874 -55.62260485 32.84063688 -52.4375 31.75 C-51.54224609 31.44964844 -50.64699219 31.14929688 -49.72460938 30.83984375 C-40.85987932 27.90034115 -40.85987932 27.90034115 -33.5 22.375 C-32 21 -32 21 -28.5625 20.0625 C-24.74720714 18.92460564 -23.64613198 17.82254078 -21 15 C-20.27296875 14.7421875 -19.5459375 14.484375 -18.796875 14.21875 C-15.06204302 12.59128132 -12.40795749 10.17980491 -9.375 7.5 C-3.2760989 2.18406593 -3.2760989 2.18406593 0 0 Z " fill="#3B72B8" transform="translate(276,282)"/>
<path d="M0 0 C0 0.99 0 1.98 0 3 C0.99 3.66 1.98 4.32 3 5 C0.36 6.65 -2.28 8.3 -5 10 C3.415 9.505 3.415 9.505 12 9 C11.67 9.66 11.34 10.32 11 11 C9.05053711 11.50244141 9.05053711 11.50244141 6.52734375 11.8515625 C5.17866211 12.04492188 5.17866211 12.04492188 3.80273438 12.2421875 C2.85720703 12.36851562 1.91167969 12.49484375 0.9375 12.625 C-0.4865918 12.82609375 -0.4865918 12.82609375 -1.93945312 13.03125 C-4.29196345 13.36225648 -6.64533094 13.68478072 -9 14 C-9 12.68 -9 11.36 -9 10 C-11.64 9.67 -14.28 9.34 -17 9 C-17 8.34 -17 7.68 -17 7 C-18.134375 6.87625 -19.26875 6.7525 -20.4375 6.625 C-21.613125 6.41875 -22.78875 6.2125 -24 6 C-24.33 5.34 -24.66 4.68 -25 4 C-22.33846814 3.12592874 -19.67280152 2.27580796 -17 1.4375 C-16.25621094 1.19064453 -15.51242188 0.94378906 -14.74609375 0.68945312 C-9.38575389 -0.96526048 -5.51679437 -1.04693711 0 0 Z " fill="#459ADD" transform="translate(195,149)"/>
<path d="M0 0 C0 3.69901005 -1.33550508 5.74036412 -3 9 C-3 9.66 -3 10.32 -3 11 C-2.05125 11.2475 -1.1025 11.495 -0.125 11.75 C3 13 3 13 4.0625 14.8125 C4.371875 15.534375 4.68125 16.25625 5 17 C5.78375 17.78375 6.5675 18.5675 7.375 19.375 C10 22 10 22 12.125 25.25 C13.77064122 28.26003892 13.77064122 28.26003892 17 29 C17.12375 29.99 17.12375 29.99 17.25 31 C17.90251404 33.61005616 18.6441802 35.40110726 19.875 37.75 C22.10369716 42.02974455 23.56349234 46.40633266 25 51 C25.35320312 51.84175781 25.70640625 52.68351562 26.0703125 53.55078125 C27.42023889 58.55912159 27.29470782 63.39874679 27.25 68.5625 C27.24613281 69.62919922 27.24226563 70.69589844 27.23828125 71.79492188 C27.15538411 79.3615882 26.6209473 86.58995518 25 94 C24.67 94 24.34 94 24 94 C24.01571045 93.03288086 24.0314209 92.06576172 24.04760742 91.06933594 C24.10259239 87.42391547 24.13659475 83.77853027 24.16479492 80.1328125 C24.17972752 78.56569217 24.20008115 76.99861246 24.22631836 75.43164062 C24.58502696 53.43084632 17.7980273 34.31231461 2.77734375 17.79296875 C0.00260377 14.99383545 -2.94731913 12.49198438 -6 10 C-5.15256083 5.51928716 -2.97965011 3.36165653 0 0 Z " fill="#4587C3" transform="translate(274,125)"/>
<path d="M0 0 C4.455 0.99 4.455 0.99 9 2 C9 2.66 9 3.32 9 4 C7.68902344 3.9690625 7.68902344 3.9690625 6.3515625 3.9375 C-14.30857957 4.28400133 -31.84326693 16.17473636 -45.94140625 30.53149414 C-50.18541272 35.01696497 -53.68301954 39.80930538 -57 45 C-58.14396824 46.70958283 -59.28971867 48.41797486 -60.4375 50.125 C-61.29286927 51.41587059 -62.14751605 52.70722214 -63 54 C-63 50.85442968 -62.44872758 49.33421928 -61.1875 46.5 C-60.85105469 45.7265625 -60.51460938 44.953125 -60.16796875 44.15625 C-58.99659406 41.9937121 -57.76941017 40.67952035 -56 39 C-55.484375 38.113125 -54.96875 37.22625 -54.4375 36.3125 C-53.963125 35.549375 -53.48875 34.78625 -53 34 C-52.34 34 -51.68 34 -51 34 C-50.731875 33.401875 -50.46375 32.80375 -50.1875 32.1875 C-49.00101202 30.00186425 -47.7416583 28.7416583 -46 27 C-45.7525 26.360625 -45.505 25.72125 -45.25 25.0625 C-43.57153924 22.29303975 -41.48164965 21.42455456 -38.66796875 19.93359375 C-36.75389004 18.86224759 -35.47781945 17.61216667 -34 16 C-30.38664981 12.67962415 -27.90235285 11.45603282 -23 11 C-23 10.34 -23 9.68 -23 9 C-15.47845271 5.80801153 -7.83455774 3.30861576 0 1 C0 0.67 0 0.34 0 0 Z " fill="#427FBD" transform="translate(420,81)"/>
<path d="M0 0 C-1 2 -1 2 -3.703125 3.0078125 C-4.87359375 3.37648438 -6.0440625 3.74515625 -7.25 4.125 C-30.53478604 11.9812611 -48.57771014 31.10287313 -62 51 C-63.65395386 53.34271414 -65.3258992 55.67158516 -67 58 C-68 55 -68 55 -67.22265625 53.17578125 C-66.1484375 51.45052083 -65.07421875 49.72526042 -64 48 C-63.34 48 -62.68 48 -62 48 C-61.76925781 47.484375 -61.53851563 46.96875 -61.30078125 46.4375 C-59.5235406 43.10717518 -57.36933841 40.07192566 -55.1875 37 C-54.54844727 36.07574219 -54.54844727 36.07574219 -53.89648438 35.1328125 C-51.27168978 31.43189184 -48.64033602 28.76888037 -45 26 C-44.34 25.01 -43.68 24.02 -43 23 C-42.34 23 -41.68 23 -41 23 C-41 22.34 -41 21.68 -41 21 C-37.90992611 17.38019915 -35.82034262 15.41317222 -31 15 C-31 14.34 -31 13.68 -31 13 C-30.43410156 12.73445313 -29.86820312 12.46890625 -29.28515625 12.1953125 C-28.55167969 11.84210938 -27.81820312 11.48890625 -27.0625 11.125 C-26.33160156 10.77695313 -25.60070312 10.42890625 -24.84765625 10.0703125 C-22.83667541 9.1315023 -22.83667541 9.1315023 -22 7 C-19.35916168 5.55991028 -16.53459459 4.50724838 -13.75 3.375 C-12.98558594 3.05015625 -12.22117187 2.7253125 -11.43359375 2.390625 C-7.50907119 0.77743611 -4.32718093 -0.46733554 0 0 Z " fill="#55B9ED" transform="translate(391,82)"/>
<path d="M0 0 C5.75 -0.125 5.75 -0.125 8 1 C15.82674587 2.11105225 23.66848379 2.31619054 31.5625 2.5625 C33.50479492 2.62727539 33.50479492 2.62727539 35.48632812 2.69335938 C38.65746384 2.79867385 41.82866793 2.90080617 45 3 C45 3.33 45 3.66 45 4 C43.35 4.33 41.7 4.66 40 5 C39.67 5.99 39.34 6.98 39 8 C40.98 8 42.96 8 45 8 C45.495 8.99 45.495 8.99 46 10 C29.89380773 9.78602885 15.01511861 6.8754812 0 1 C0 0.67 0 0.34 0 0 Z " fill="#3067C0" transform="translate(91,316)"/>
<path d="M0 0 C1.24523437 0.01804688 2.49046875 0.03609375 3.7734375 0.0546875 C5.18496094 0.08949219 5.18496094 0.08949219 6.625 0.125 C6.3125 2.5 6.3125 2.5 5.625 5.125 C0.85386284 8.30575811 -1.79907639 9.37665051 -7.625 9.25 C-8.70265625 9.23195312 -9.7803125 9.21390625 -10.890625 9.1953125 C-11.71046875 9.17210937 -12.5303125 9.14890625 -13.375 9.125 C-12.715 8.465 -12.055 7.805 -11.375 7.125 C-15.665 6.795 -19.955 6.465 -24.375 6.125 C-24.375 5.465 -24.375 4.805 -24.375 4.125 C-23.28832031 3.94324219 -23.28832031 3.94324219 -22.1796875 3.7578125 C-21.21289062 3.59023437 -20.24609375 3.42265625 -19.25 3.25 C-18.29867187 3.08757812 -17.34734375 2.92515625 -16.3671875 2.7578125 C-13.34916867 2.19331206 -13.34916867 2.19331206 -10.46875 1.0625 C-6.84197225 -0.03652356 -3.78137816 -0.07134676 0 0 Z " fill="#4294DB" transform="translate(158.375,133.875)"/>
<path d="M0 0 C0.33 0.99 0.66 1.98 1 3 C-0.65 3.33 -2.3 3.66 -4 4 C-3.34 4.66 -2.68 5.32 -2 6 C-2.66 6 -3.32 6 -4 6 C-1.41426224 9.23897677 1.22622856 9.79301935 5.1875 10.6875 C6.27417969 10.93886719 7.36085937 11.19023437 8.48046875 11.44921875 C9.31191406 11.63097656 10.14335937 11.81273437 11 12 C11 12.66 11 13.32 11 14 C15.62 14.99 20.24 15.98 25 17 C25 17.33 25 17.66 25 18 C26.11375 18.103125 27.2275 18.20625 28.375 18.3125 C30.169375 18.6528125 30.169375 18.6528125 32 19 C32.66 19.99 33.32 20.98 34 22 C26.10990605 21.5147132 19.34548721 19.29881377 11.9375 16.625 C10.80505859 16.22539062 9.67261719 15.82578125 8.50585938 15.4140625 C2.64638199 13.33918641 -3.18837003 11.20514723 -9 9 C-9 8.01 -9 7.02 -9 6 C-10.32 5.67 -11.64 5.34 -13 5 C-13 4.34 -13 3.68 -13 3 C-13.99 3 -14.98 3 -16 3 C-15.67 2.34 -15.34 1.68 -15 1 C-13.948125 1.020625 -12.89625 1.04125 -11.8125 1.0625 C-7.76871947 0.99620852 -4.01564529 0 0 0 Z " fill="#3475C8" transform="translate(141,190)"/>
<path d="M0 0 C0.66 0 1.32 0 2 0 C1.36225612 4.34974034 -0.20629352 7.80933826 -2.125 11.75 C-7.05949853 22.06500974 -11.73591462 32.60659721 -15.203125 43.515625 C-18.78522574 54.68335083 -22.83083585 65.46003764 -28 76 C-29.09658936 72.71023192 -28.79953138 71.28696233 -28 68 C-27.34 68 -26.68 68 -26 68 C-25.896875 67.154375 -25.79375 66.30875 -25.6875 65.4375 C-24.93170011 61.65850056 -23.53805981 58.52472041 -22 55 C-21.30859478 52.22111387 -21.30859478 52.22111387 -21 50 C-20.34 50 -19.68 50 -19 50 C-18.89042969 49.38253906 -18.78085937 48.76507813 -18.66796875 48.12890625 C-17.5622734 42.22287499 -16.04638565 36.64802441 -14 31 C-13.34 31 -12.68 31 -12 31 C-12.061875 30.278125 -12.12375 29.55625 -12.1875 28.8125 C-12 26 -12 26 -10.640625 23.75390625 C-8.77980762 20.63039137 -7.71258669 17.5714893 -6.5625 14.125 C-4.79262007 9.01916458 -2.91756207 4.53842988 0 0 Z " fill="#4790C9" transform="translate(354,136)"/>
<path d="M0 0 C-4.625 3 -4.625 3 -8 3 C-8.17660156 3.61488281 -8.35320312 4.22976562 -8.53515625 4.86328125 C-10.74582244 8.08790634 -13.80829795 8.39827213 -17.4375 9.1875 C-18.16396729 9.35475586 -18.89043457 9.52201172 -19.63891602 9.69433594 C-28.43711972 11.64667789 -37.01538773 12.06846337 -46 12.125 C-46.74306396 12.12983398 -47.48612793 12.13466797 -48.25170898 12.13964844 C-51.43258477 12.1294076 -53.96083148 12.01305617 -57 11 C-57 10.01 -57 9.02 -57 8 C-56.38294189 8.02618408 -55.76588379 8.05236816 -55.13012695 8.0793457 C-36.98594718 8.74166444 -20.77748932 7.00405382 -4.04443359 -0.31933594 C-2 -1 -2 -1 0 0 Z " fill="#5FBCE1" transform="translate(326,70)"/>
<path d="M0 0 C8.71075642 1.40496071 16.80622528 5.0873437 24.88378906 8.48681641 C28.87934382 10.16186885 32.86483005 11.69107219 37 13 C37 13.99 37 14.98 37 16 C37.61875 15.814375 38.2375 15.62875 38.875 15.4375 C41 15 41 15 43 16 C43 16.66 43 17.32 43 18 C43.7425 18.0825 44.485 18.165 45.25 18.25 C48.51221354 19.1396946 49.80954878 20.48503749 52 23 C51.67 23.66 51.34 24.32 51 25 C50.49251221 24.72325439 49.98502441 24.44650879 49.4621582 24.16137695 C40.59459322 19.34847175 31.85191332 14.66090341 22.34765625 11.21484375 C18.1337949 9.68565953 13.97110251 8.04775585 9.8125 6.375 C9.0685498 6.08536377 8.32459961 5.79572754 7.55810547 5.49731445 C3.93640324 4.03407269 2.21826895 3.32740343 0 0 Z " fill="#55B8EB" transform="translate(160,128)"/>
<path d="M0 0 C0.33 0 0.66 0 1 0 C0.88490339 1.41750563 0.75746342 2.83401169 0.625 4.25 C0.55539063 5.03890625 0.48578125 5.8278125 0.4140625 6.640625 C-0.01507113 9.085877 -0.78600638 10.84836903 -2 13 C-2.495 12.01 -2.495 12.01 -3 11 C-6.07365696 11.63171522 -6.07365696 11.63171522 -6.875 13.75 C-8.38873277 16.77746553 -10.5841664 18.63234542 -13 21 C-13.825 21.87140625 -14.65 22.7428125 -15.5 23.640625 C-16.325 24.50171875 -17.15 25.3628125 -18 26.25 C-18.825 27.12140625 -19.65 27.9928125 -20.5 28.890625 C-23.2438472 31.20574608 -24.55307672 31.40984495 -28 32 C-30.12370675 33.20215006 -32.20480975 34.48115031 -34.25 35.8125 C-44.70057545 42.45989264 -44.70057545 42.45989264 -50 44 C-50.66 43.67 -51.32 43.34 -52 43 C-51.44650879 42.70343506 -50.89301758 42.40687012 -50.32275391 42.10131836 C-31.02838968 31.72733501 -10.36918656 20.30632368 0 0 Z " fill="#4F99CC" transform="translate(208,258)"/>
<path d="M0 0 C4.6875 0.78125 4.6875 0.78125 9.375 1.5625 C10.674375 1.7790625 10.674375 1.7790625 12 2 C12 2.66 12 3.32 12 4 C12.94359375 4.16435547 12.94359375 4.16435547 13.90625 4.33203125 C19.56623682 5.38049266 24.6694886 6.82831017 30 9 C30 9.66 30 10.32 30 11 C30.66 10.79375 31.32 10.5875 32 10.375 C39.27326453 9.46584193 46.43286338 13.22780708 53 16 C52.505 17.485 52.505 17.485 52 19 C46.68195639 17.3886932 41.36591623 15.77098054 36.05151367 14.14770508 C34.24929593 13.59815638 32.44657372 13.0502589 30.64331055 12.50415039 C20.2676708 9.36062832 10.04149786 6.11076337 0 2 C0 1.34 0 0.68 0 0 Z " fill="#479CDE" transform="translate(122,175)"/>
<path d="M0 0 C0.66 0.33 1.32 0.66 2 1 C1.401875 1.433125 0.80375 1.86625 0.1875 2.3125 C-1.72225402 3.78573882 -3.41897819 5.18182492 -5 7 C-5 7.66 -5 8.32 -5 9 C-18.39968335 13.83468428 -30.74852932 16.58478679 -45 16 C-45 15.67 -45 15.34 -45 15 C-43.73542969 14.81824219 -43.73542969 14.81824219 -42.4453125 14.6328125 C-41.34960938 14.46523438 -40.25390625 14.29765625 -39.125 14.125 C-38.03445312 13.96257812 -36.94390625 13.80015625 -35.8203125 13.6328125 C-32.88067286 13.23743487 -32.88067286 13.23743487 -31 11 C-29.01354224 10.59367909 -27.00946222 10.27050453 -25 10 C-17.06429161 8.92731114 -9.71897149 5.74286126 -2.875 1.625 C-1.92625 1.08875 -0.9775 0.5525 0 0 Z " fill="#3371C3" transform="translate(218,311)"/>
<path d="M0 0 C9.56601718 3.0805818 19.05484538 6.38660691 28 11 C28 11.66 28 12.32 28 13 C29.2375 13.0825 30.475 13.165 31.75 13.25 C34.98882964 13.63475459 35.87907883 13.90024003 38.5 16.0625 C38.995 16.701875 39.49 17.34125 40 18 C39.67 18.66 39.34 19.32 39 20 C36.13444648 18.87114558 33.31334952 17.69345961 30.5 16.4375 C27.59272667 15.24344131 25.0872655 14.4677675 22 14 C22 13.34 22 12.68 22 12 C21.38125 11.690625 20.7625 11.38125 20.125 11.0625 C18.75 10.375 17.375 9.6875 16 9 C15.67 9.66 15.34 10.32 15 11 C15 10.01 15 9.02 15 8 C13.515 7.8453125 13.515 7.8453125 12 7.6875 C7.71702837 7.09191294 4.00003629 5.61404973 0 4 C0 2.68 0 1.36 0 0 Z " fill="#5CC7E8" transform="translate(195,116)"/>
<path d="M0 0 C4.48717418 1.37805803 8.51572669 3.16715249 12.6875 5.3125 C13.9303151 5.94273808 15.1738124 6.57163259 16.41796875 7.19921875 C17.02688965 7.50649902 17.63581055 7.8137793 18.26318359 8.13037109 C30.70435726 14.35970208 43.80335236 18.67362651 57 23 C56.01 23.66 55.02 24.32 54 25 C51.73046875 24.35546875 51.73046875 24.35546875 49.1875 23.1875 C45.43422408 21.55540198 42.10573778 20.43218292 38 20 C38 19.34 38 18.68 38 18 C37.12988281 17.83564453 37.12988281 17.83564453 36.2421875 17.66796875 C31.40253723 16.6856635 27.34633884 15.45178089 23 13 C22.67 13.99 22.34 14.98 22 16 C18.37 14.02 14.74 12.04 11 10 C11 9.01 11 8.02 11 7 C10.4225 6.896875 9.845 6.79375 9.25 6.6875 C6.66864537 5.89875275 5.12109722 4.64213978 3 3 C2.01 2.67 1.02 2.34 0 2 C0 1.34 0 0.68 0 0 Z " fill="#59ABD2" transform="translate(99,77)"/>
<path d="M0 0 C0.66 0.33 1.32 0.66 2 1 C-3.86768185 12.12362666 -9.93322508 22.33129102 -18 32 C-18.46083984 32.56090332 -18.92167969 33.12180664 -19.39648438 33.69970703 C-24.650917 40.09212217 -30.01000211 46.27622424 -36 52 C-36.66 51.67 -37.32 51.34 -38 51 C-38 50.34 -38 49.68 -38 49 C-37.01 48.505 -37.01 48.505 -36 48 C-35.67 47.01 -35.34 46.02 -35 45 C-33.5459375 44.071875 -33.5459375 44.071875 -32.0625 43.125 C-28.67394474 40.77375757 -28.44501881 39.66071431 -27 36 C-26.21625 35.71125 -25.4325 35.4225 -24.625 35.125 C-21.63304439 33.84273331 -21.3369818 33.20964241 -19.875 30.4375 C-18 27 -18 27 -15 26 C-14.9175 25.21625 -14.835 24.4325 -14.75 23.625 C-14.5025 22.75875 -14.255 21.8925 -14 21 C-13.0409375 20.566875 -13.0409375 20.566875 -12.0625 20.125 C-9.57128812 19.07522798 -9.57128812 19.07522798 -8.875 15.4375 C-8.58625 14.303125 -8.2975 13.16875 -8 12 C-7.34 11.67 -6.68 11.34 -6 11 C-5.67 10.01 -5.34 9.02 -5 8 C-4.34 8 -3.68 8 -3 8 C-2.814375 6.8553125 -2.814375 6.8553125 -2.625 5.6875 C-2 3 -2 3 0 0 Z " fill="#488AC7" transform="translate(315,231)"/>
<path d="M0 0 C10.55808656 3.07517084 10.55808656 3.07517084 15 5 C15 5.66 15 6.32 15 7 C16.1446875 6.87625 16.1446875 6.87625 17.3125 6.75 C21.8300775 7.05627644 25.42004692 8.47673977 29.609375 10.125 C31.88873744 11.11457119 31.88873744 11.11457119 34 11 C34 11.66 34 12.32 34 13 C34.99 13.33 35.98 13.66 37 14 C37.495 15.485 37.495 15.485 38 17 C31.38075499 15.46746544 25.19974524 13.82795397 19 11 C15.73473623 9.7415986 12.46062183 8.50866028 9.18359375 7.28125 C6.02550299 6.01026378 3.02243727 4.56348635 0 3 C0 2.01 0 1.02 0 0 Z " fill="#52B0E0" transform="translate(122,90)"/>
<path d="M0 0 C0 0.66 0 1.32 0 2 C1.32 2 2.64 2 4 2 C4 2.66 4 3.32 4 4 C2.9171875 3.8453125 2.9171875 3.8453125 1.8125 3.6875 C-1.2503733 3.69822599 -1.2503733 3.69822599 -3.125 6.5625 C-6 9 -6 9 -8.76171875 9.109375 C-11.5345406 8.83954855 -14.25710982 8.48516972 -17 8 C-14.57869669 5.57869669 -13.19888623 5.47159496 -9.875 4.875 C-8.50988281 4.62363281 -8.50988281 4.62363281 -7.1171875 4.3671875 C-6.06917969 4.18542969 -6.06917969 4.18542969 -5 4 C-5 3.34 -5 2.68 -5 2 C-6.04220703 2.24556641 -6.04220703 2.24556641 -7.10546875 2.49609375 C-10.2352816 3.04095996 -13.13798083 3.09738483 -16.3125 3.0625 C-17.38113281 3.05347656 -18.44976562 3.04445312 -19.55078125 3.03515625 C-20.35902344 3.02355469 -21.16726562 3.01195312 -22 3 C-16.08319425 -0.94453716 -6.75015684 -3.37507842 0 0 Z " fill="#4599E0" transform="translate(182,142)"/>
<path d="M0 0 C2.47579847 1.86396322 4.77140463 3.84801259 7 6 C6.67 6.99 6.34 7.98 6 9 C5.319375 7.88625 5.319375 7.88625 4.625 6.75 C0.3917444 2.3151608 -4.64002326 0.39215867 -10.7109375 -0.31640625 C-19.62593951 -0.50798939 -28.13142531 0.70805017 -36 5 C-40.18469376 6.44299785 -42.77326595 7.29201478 -47 6 C-43.60667609 4.68094674 -40.20993431 3.37092599 -36.8125 2.0625 C-35.85279297 1.68931641 -34.89308594 1.31613281 -33.90429688 0.93164062 C-32.50727539 0.39506836 -32.50727539 0.39506836 -31.08203125 -0.15234375 C-30.22843018 -0.48226318 -29.3748291 -0.81218262 -28.49536133 -1.15209961 C-19.66426131 -4.15282462 -8.24980491 -4.91746013 0 0 Z " fill="#6DC7DB" transform="translate(373,62)"/>
<path d="M0 0 C2.85354728 2.52594971 4.46690464 5.37391385 6.3125 8.6875 C8.90365492 13.23580386 11.64562735 17.40738215 14.93359375 21.4765625 C16 23 16 23 16 25 C16.99 25.33 17.98 25.66 19 26 C20.33203125 27.4609375 20.33203125 27.4609375 21.8125 29.375 C27.69068091 36.3529696 35.43902754 41.95935169 43 47 C43 47.66 43 48.32 43 49 C25.32004138 40.91058497 7.05653262 21.04540674 0 3 C0 2.01 0 1.02 0 0 Z " fill="#4177B4" transform="translate(55,76)"/>
<path d="M0 0 C11.78990692 2.09353487 21.50640696 6.84180321 31 14 C32.12728516 14.81597656 32.12728516 14.81597656 33.27734375 15.6484375 C39.35374992 20.43025426 44.99083941 27.58144405 46.43359375 35.328125 C46.4375 37.25 46.4375 37.25 46 40 C44.34361079 37.51541618 43.26268753 35.40948793 42.125 32.6875 C35.31456573 17.33306637 22.44829991 10.57931996 7.5234375 4.609375 C5.0275459 3.69356981 2.53038532 2.81486985 0 2 C0 1.34 0 0.68 0 0 Z " fill="#4581B9" transform="translate(177,213)"/>
<path d="M0 0 C4.63116013 1.27356904 8.21060525 3.24846937 12.16796875 5.87890625 C14.10995074 7.16189886 14.10995074 7.16189886 17 8 C17 8.66 17 9.32 17 10 C17.71542969 10.12246094 18.43085937 10.24492187 19.16796875 10.37109375 C22.05112713 11.01135375 24.58592473 11.93551556 27.3125 13.0625 C28.19550781 13.42472656 29.07851562 13.78695312 29.98828125 14.16015625 C30.65214844 14.43730469 31.31601563 14.71445313 32 15 C32 15.66 32 16.32 32 17 C38.88824069 19.40990104 38.88824069 19.40990104 46 21 C46 21.66 46 22.32 46 23 C46.66 23 47.32 23 48 23 C48 23.66 48 24.32 48 25 C40.57975403 22.72580328 33.73006241 19.6916192 26.75 16.3125 C25.64914063 15.78156738 24.54828125 15.25063477 23.4140625 14.70361328 C2.16309042 4.32618085 2.16309042 4.32618085 0 0 Z " fill="#4883BD" transform="translate(100,126)"/>
<path d="M0 0 C0.64324219 0.4125 1.28648438 0.825 1.94921875 1.25 C4.9610262 3.17480704 7.98060746 5.08711538 11 7 C12.04542969 7.67160156 13.09085938 8.34320313 14.16796875 9.03515625 C21.55916691 13.70754583 28.97696804 17.5334199 37 21 C33.43489959 22.1883668 32.29696078 21.45658965 29.01171875 19.88671875 C26.90307974 18.91203739 26.90307974 18.91203739 24.203125 18.12890625 C20.59248535 16.85637594 17.36279474 15.1609582 14.0625 13.25 C13.45003418 12.89655518 12.83756836 12.54311035 12.20654297 12.17895508 C7.64925983 9.49417096 3.69495633 6.78293148 0 3 C0 2.01 0 1.02 0 0 Z " fill="#4E95BF" transform="translate(74,134)"/>
<path d="M0 0 C0.33 0 0.66 0 1 0 C1.30729307 9.17326707 1.47649474 17.3406576 -2 26 C-2.35964844 27.03447266 -2.35964844 27.03447266 -2.7265625 28.08984375 C-4.43695892 32.68535939 -4.43695892 32.68535939 -7.125 34.1875 C-7.74375 34.455625 -8.3625 34.72375 -9 35 C-9.80528889 37.05000871 -9.80528889 37.05000871 -10 39 C-10.99 39 -11.98 39 -13 39 C-13.3403125 39.928125 -13.3403125 39.928125 -13.6875 40.875 C-15.37929835 43.61410209 -16.99244161 44.05024472 -20 45 C-19.175 44.05125 -18.35 43.1025 -17.5 42.125 C-16.33284611 40.75041355 -15.16623311 39.37536774 -14 38 C-13.32710937 37.22785156 -12.65421875 36.45570313 -11.9609375 35.66015625 C-2.57305384 24.53182225 -1.16642827 14.08922573 0 0 Z " fill="#3E76B6" transform="translate(223,254)"/>
<path d="M0 0 C2.79881143 1.28988701 4.96615421 2.68788681 7.25 4.75 C11.0066997 8.05850342 14.96344734 11.04335623 19 14 C18.67 14.99 18.34 15.98 18 17 C16.68 16.34 15.36 15.68 14 15 C14 14.34 14 13.68 14 13 C13.01 13 12.02 13 11 13 C11 12.34 11 11.68 11 11 C10.43796875 10.88785156 9.8759375 10.77570313 9.296875 10.66015625 C6.68486892 9.90942661 4.60528678 8.78832624 2.25 7.4375 C1.45078125 6.98246094 0.6515625 6.52742187 -0.171875 6.05859375 C-1.07679688 5.53458984 -1.07679688 5.53458984 -2 5 C-1.34 3.35 -0.68 1.7 0 0 Z " fill="#61CAE5" transform="translate(237,132)"/>
<path d="M0 0 C0.83144531 0.00451172 1.66289062 0.00902344 2.51953125 0.01367188 C4.55471897 0.02536836 6.58986923 0.04330065 8.625 0.0625 C8.625 0.7225 8.625 1.3825 8.625 2.0625 C7.91472656 2.25585938 7.20445312 2.44921875 6.47265625 2.6484375 C5.09400391 3.03902344 5.09400391 3.03902344 3.6875 3.4375 C2.77097656 3.69273437 1.85445312 3.94796875 0.91015625 4.2109375 C-1.54245087 4.82910104 -1.54245087 4.82910104 -2.375 7.0625 C-4.685 7.0625 -6.995 7.0625 -9.375 7.0625 C-9.375 5.7425 -9.375 4.4225 -9.375 3.0625 C-12.015 3.0625 -14.655 3.0625 -17.375 3.0625 C-13.07476019 -1.23773981 -5.73809138 -0.0594858 0 0 Z " fill="#4090D8" transform="translate(168.375,143.9375)"/>
<path d="M0 0 C0.66 0 1.32 0 2 0 C6.14817308 9.81628744 9.21427117 19.24748312 9 30 C9.99 30.33 10.98 30.66 12 31 C11.88590318 33.10478604 11.75834639 35.20884577 11.625 37.3125 C11.55539062 38.48425781 11.48578125 39.65601563 11.4140625 40.86328125 C11 44 11 44 9 47 C8.96261719 46.04222656 8.92523438 45.08445313 8.88671875 44.09765625 C8.24719274 30.26000014 6.9037451 16.90862151 0.98828125 4.22265625 C0 2 0 2 0 0 Z " fill="#D1F4F8" transform="translate(286,179)"/>
<path d="M0 0 C0.71484375 1.734375 0.71484375 1.734375 1 4 C-0.43359375 6.140625 -0.43359375 6.140625 -2.4375 8.25 C-3.09621094 8.95640625 -3.75492187 9.6628125 -4.43359375 10.390625 C-4.95050781 10.92171875 -5.46742188 11.4528125 -6 12 C-6.99 11.67 -7.98 11.34 -9 11 C-9.24621094 11.55429688 -9.49242187 12.10859375 -9.74609375 12.6796875 C-11.24073163 15.445466 -13.0663739 17.69776863 -15.0625 20.125 C-17.80448747 23.38551023 -17.80448747 23.38551023 -20 27 C-19.34 27.33 -18.68 27.66 -18 28 C-18.99 28 -19.98 28 -21 28 C-21 18.31714549 -7.79989041 7.86142747 -1.171875 1.1484375 C-0.78515625 0.76945312 -0.3984375 0.39046875 0 0 Z " fill="#5CAED0" transform="translate(287,106)"/>
<path d="M0 0 C1.21236328 -0.02416992 1.21236328 -0.02416992 2.44921875 -0.04882812 C8.01354369 -0.05327958 13.87768176 0.38427815 18.75 3.3125 C19.49707031 5.4206543 19.49707031 5.4206543 19.75 7.3125 C19.21890625 7.03535156 18.6878125 6.75820312 18.140625 6.47265625 C17.43421875 6.11042969 16.7278125 5.74820313 16 5.375 C15.30390625 5.01535156 14.6078125 4.65570313 13.890625 4.28515625 C3.42487508 -0.47026661 -7.98528895 2.62671572 -18.25 6.3125 C-20.01974042 6.89914072 -21.79043932 7.48290582 -23.5625 8.0625 C-25.3878125 8.68125 -25.3878125 8.68125 -27.25 9.3125 C-26.92 8.3225 -26.59 7.3325 -26.25 6.3125 C-23.703125 5.21484375 -23.703125 5.21484375 -20.5 4.25 C-16.13760509 2.94152983 -16.13760509 2.94152983 -11.9375 1.2109375 C-7.96653959 -0.1165638 -4.15907502 -0.01627181 0 0 Z " fill="#DBFAFC" transform="translate(357.25,57.6875)"/>
<path d="M0 0 C0 3 0 3 -2.4140625 5.6640625 C-3.47629174 6.65973602 -4.54701644 7.646405 -5.625 8.625 C-6.14707031 9.12773437 -6.66914063 9.63046875 -7.20703125 10.1484375 C-10.67735081 13.33599028 -13.13339639 14.69309707 -18 15 C-16.50958227 11.20620942 -14.30937488 9.31656242 -11 7 C-10.34 7 -9.68 7 -9 7 C-8.62875 6.071875 -8.62875 6.071875 -8.25 5.125 C-6.77778558 2.62223548 -5.68251172 2.0059419 -3 1 C-2.34 1 -1.68 1 -1 1 C-0.67 0.67 -0.34 0.34 0 0 Z " fill="#408EDA" transform="translate(243,291)"/>
<path d="M0 0 C0.66 0.33 1.32 0.66 2 1 C-2.78282804 6.09889903 -7.81429281 10.28501442 -13.5625 14.25 C-14.29146484 14.765625 -15.02042969 15.28125 -15.77148438 15.8125 C-19.71629852 18.56783374 -23.61515721 20.97729211 -28 23 C-28.66 22.34 -29.32 21.68 -30 21 C-29.071875 20.566875 -28.14375 20.13375 -27.1875 19.6875 C-24.09956031 18.25273003 -24.09956031 18.25273003 -22.4375 16.4375 C-21 15 -21 15 -18.82421875 14.25390625 C-15.08962684 12.59580943 -12.41768743 10.1884019 -9.375 7.5 C-3.2760989 2.18406593 -3.2760989 2.18406593 0 0 Z " fill="#447FC0" transform="translate(276,282)"/>
<path d="M0 0 C4.8317191 2.37027729 8.4252112 4.89950696 12 9 C12.33 9.99 12.66 10.98 13 12 C13.99 12.33 14.98 12.66 16 13 C15.34 14.32 14.68 15.64 14 17 C13.50371094 16.48050781 13.00742188 15.96101562 12.49609375 15.42578125 C9.18969684 12.03154837 5.99707736 8.84864568 2.0625 6.1875 C-1 4 -1 4 -2 1 C-1.34 0.67 -0.68 0.34 0 0 Z " fill="#56BBEE" transform="translate(225,158)"/>
<path d="M0 0 C0.66 0 1.32 0 2 0 C-1.03304521 12.76039018 -6.16617311 25.28960756 -12 37 C-13.09658936 33.71023192 -12.79953138 32.28696233 -12 29 C-11.34 29 -10.68 29 -10 29 C-9.8453125 27.7315625 -9.8453125 27.7315625 -9.6875 26.4375 C-8.93170011 22.65850056 -7.53805981 19.52472041 -6 16 C-5.30859478 13.22111387 -5.30859478 13.22111387 -5 11 C-4.34 11 -3.68 11 -3 11 C-2.86722656 10.28972656 -2.73445313 9.57945312 -2.59765625 8.84765625 C-2.42105469 7.92855469 -2.24445313 7.00945312 -2.0625 6.0625 C-1.88847656 5.14597656 -1.71445312 4.22945312 -1.53515625 3.28515625 C-1 1 -1 1 0 0 Z " fill="#549ECD" transform="translate(338,175)"/>
<path d="M0 0 C-0.33 0.99 -0.66 1.98 -1 3 C-5.79079242 5.22587586 -10.21716342 5.24625113 -15.375 5.125 C-16.47908203 5.11146484 -16.47908203 5.11146484 -17.60546875 5.09765625 C-19.4037888 5.07430144 -21.20193911 5.03843836 -23 5 C-22.67 4.34 -22.34 3.68 -22 3 C-19.63671875 2.40234375 -19.63671875 2.40234375 -16.6875 1.9375 C-12.75710767 1.3162315 -12.75710767 1.3162315 -8.87890625 0.4453125 C-5.93256606 -0.2529885 -3.01201099 -0.05792329 0 0 Z " fill="#408FDB" transform="translate(142,127)"/>
<path d="M0 0 C0.66 0.33 1.32 0.66 2 1 C-2.21539583 5.33395384 -6.56713892 9.41413557 -11.140625 13.3671875 C-14.5307133 16.34419782 -17.49572884 19.24359325 -20 23 C-21.19168633 24.41007228 -22.40127337 25.80514214 -23.625 27.1875 C-24.25664062 27.90292969 -24.88828125 28.61835937 -25.5390625 29.35546875 C-26.02117187 29.89816406 -26.50328125 30.44085938 -27 31 C-27 22.89602125 -15.4737881 14.29175271 -10.01318359 8.82299805 C-6.81817339 5.66869716 -3.57327818 2.732111 0 0 Z " fill="#3D8AD1" transform="translate(360,98)"/>
<path d="M0 0 C2.31 0 4.62 0 7 0 C7 0.66 7 1.32 7 2 C11.62 2.99 16.24 3.98 21 5 C21 5.33 21 5.66 21 6 C22.11375 6.103125 23.2275 6.20625 24.375 6.3125 C26.169375 6.6528125 26.169375 6.6528125 28 7 C28.99 8.485 28.99 8.485 30 10 C22.84572565 9.47902207 16.68842676 7.80995512 9.9375 5.4375 C8.97650391 5.10814453 8.01550781 4.77878906 7.02539062 4.43945312 C4.68060973 3.63452834 2.33908854 2.82128851 0 2 C0 1.34 0 0.68 0 0 Z " fill="#3E79B7" transform="translate(145,202)"/>
<path d="M0 0 C5.0193557 5.0193557 4.28256364 15.24541964 4.75 22.0625 C4.80679932 22.81281494 4.86359863 23.56312988 4.92211914 24.33618164 C5.03218514 26.22108874 5.02508905 28.11204877 5 30 C4.34 30.66 3.68 31.32 3 32 C2.48843054 28.54327799 1.99293468 25.08442448 1.5 21.625 C1.35691406 20.65949219 1.21382813 19.69398438 1.06640625 18.69921875 C0.18134906 12.41952727 -0.18794674 6.33972202 0 0 Z " fill="#5DB3DA" transform="translate(291,197)"/>
<path d="M0 0 C5.75 -0.125 5.75 -0.125 8 1 C10.03583123 1.38630039 12.0787318 1.73596784 14.125 2.0625 C15.22070312 2.23910156 16.31640625 2.41570312 17.4453125 2.59765625 C18.28835937 2.73042969 19.13140625 2.86320312 20 3 C20 3.66 20 4.32 20 5 C22.64 5.33 25.28 5.66 28 6 C25.78557378 7.34875557 24.5004406 8.04728209 21.88110352 7.79980469 C21.13787842 7.59258789 20.39465332 7.38537109 19.62890625 7.171875 C18.80712891 6.94886719 17.98535156 6.72585938 17.13867188 6.49609375 C16.28853516 6.24988281 15.43839844 6.00367188 14.5625 5.75 C13.71623047 5.51925781 12.86996094 5.28851563 11.99804688 5.05078125 C7.89610462 3.91367275 3.91043021 2.70228174 0 1 C0 0.67 0 0.34 0 0 Z " fill="#386FBD" transform="translate(91,316)"/>
<path d="M0 0 C3.66415876 2.06312314 6.70548128 4.35872176 9.8125 7.1875 C10.60269531 7.90292969 11.39289063 8.61835938 12.20703125 9.35546875 C12.79871094 9.89816406 13.39039063 10.44085938 14 11 C13.67 11.66 13.34 12.32 13 13 C10.72791794 11.8774654 8.45732355 10.75208479 6.1875 9.625 C5.54490234 9.30789062 4.90230469 8.99078125 4.24023438 8.6640625 C1.36805539 7.23541389 -1.3267821 5.78214527 -4 4 C-2.35 4 -0.7 4 1 4 C0.67 2.68 0.34 1.36 0 0 Z " fill="#D8F2F7" transform="translate(199,175)"/>
<path d="M0 0 C0.79921875 0.00902344 1.5984375 0.01804688 2.421875 0.02734375 C3.02515625 0.03894531 3.6284375 0.05054688 4.25 0.0625 C3.25 2.0625 3.25 2.0625 1.16796875 2.9140625 C-5.93726325 4.92670332 -12.38458118 5.40956162 -19.75 5.0625 C-19.42 4.4025 -19.09 3.7425 -18.75 3.0625 C-16.60546875 2.46484375 -16.60546875 2.46484375 -13.9375 2 C-10.30577003 1.36269357 -10.30577003 1.36269357 -6.72265625 0.5078125 C-4.42881994 -0.01000401 -2.34879466 -0.0345411 0 0 Z " fill="#4497DF" transform="translate(146.75,130.9375)"/>
<path d="M0 0 C12.87 0.495 12.87 0.495 26 1 C25.67 1.99 25.34 2.98 25 4 C21.3958502 4.02900455 17.79173038 4.04680018 14.1875 4.0625 C12.65125977 4.07506836 12.65125977 4.07506836 11.08398438 4.08789062 C9.60961914 4.09272461 9.60961914 4.09272461 8.10546875 4.09765625 C7.19949951 4.10289307 6.29353027 4.10812988 5.36010742 4.11352539 C3 4 3 4 0 3 C0 2.01 0 1.02 0 0 Z " fill="#5BACD0" transform="translate(269,78)"/>
<path d="M0 0 C7.32906052 1.76502604 14.44414488 4.10006794 21.5625 6.5625 C22.45549805 6.86744385 23.34849609 7.1723877 24.26855469 7.48657227 C25.52974121 7.92827759 25.52974121 7.92827759 26.81640625 8.37890625 C27.57381104 8.6426001 28.33121582 8.90629395 29.11157227 9.17797852 C31 10 31 10 33 12 C30.69 12 28.38 12 26 12 C26 11.34 26 10.68 26 10 C25.27981689 9.86859619 24.55963379 9.73719238 23.81762695 9.60180664 C21.09667508 9.02064848 18.55274805 8.26012971 15.91796875 7.37109375 C14.98662109 7.05849609 14.05527344 6.74589844 13.09570312 6.42382812 C12.13599609 6.09833984 11.17628906 5.77285156 10.1875 5.4375 C9.20845703 5.10814453 8.22941406 4.77878906 7.22070312 4.43945312 C4.81287331 3.62901285 2.40602504 2.81577946 0 2 C0 1.34 0 0.68 0 0 Z " fill="#65BAD2" transform="translate(156,101)"/>
<path d="M0 0 C1.98 0.99 3.96 1.98 6 3 C6 3.66 6 4.32 6 5 C6.54527344 5.25652344 7.09054688 5.51304688 7.65234375 5.77734375 C11.41292639 7.73585018 14.89330969 10.12575571 18.44140625 12.44140625 C20.9764106 14.11628914 20.9764106 14.11628914 24 15 C24.6875 17.0625 24.6875 17.0625 25 19 C18.86256414 16.82540492 14.15065849 12.88927274 9 9 C8.10410156 8.33613281 7.20820312 7.67226562 6.28515625 6.98828125 C5.46917969 6.37339844 4.65320313 5.75851563 3.8125 5.125 C2.70841797 4.29355469 2.70841797 4.29355469 1.58203125 3.4453125 C1.05996094 2.96835938 0.53789063 2.49140625 0 2 C0 1.34 0 0.68 0 0 Z " fill="#479BE0" transform="translate(82,85)"/>
<path d="M0 0 C0 0.66 0 1.32 0 2 C-0.66 2 -1.32 2 -2 2 C-2 2.66 -2 3.32 -2 4 C-7.39942069 6.80722093 -12.8559457 9.44794167 -18.4375 11.875 C-19.42621094 12.30554688 -20.41492188 12.73609375 -21.43359375 13.1796875 C-24 14 -24 14 -27 13 C-26.18378174 12.62246582 -26.18378174 12.62246582 -25.35107422 12.23730469 C-22.85663819 11.07998821 -20.36582631 9.91506392 -17.875 8.75 C-17.0190625 8.35425781 -16.163125 7.95851563 -15.28125 7.55078125 C-11.5330465 5.79200884 -7.92202395 4.05675161 -4.5078125 1.703125 C-2 0 -2 0 0 0 Z " fill="#3F8CDE" transform="translate(223,307)"/>
<path d="M0 0 C0.721875 0.185625 1.44375 0.37125 2.1875 0.5625 C5.19826045 1.03084051 7.03886527 0.60353127 10 0 C13.8517653 -0.2606674 17.7028025 -0.27651774 21.5625 -0.3125 C22.60341797 -0.34150391 23.64433594 -0.37050781 24.71679688 -0.40039062 C26.22016602 -0.41295898 26.22016602 -0.41295898 27.75390625 -0.42578125 C28.66470947 -0.44036377 29.5755127 -0.45494629 30.51391602 -0.4699707 C33.72961314 0.13792648 34.92199858 1.54760031 37 4 C36.04351562 3.67515625 35.08703125 3.3503125 34.1015625 3.015625 C29.52417362 1.71174875 25.10575206 1.7056492 20.375 1.75 C19.12589844 1.73839844 19.12589844 1.73839844 17.8515625 1.7265625 C13.37518702 1.74081847 10.12632754 2.12304235 6 4 C4.68 4 3.36 4 2 4 C1.34 2.68 0.68 1.36 0 0 Z " fill="#CDF6F9" transform="translate(379,67)"/>
<path d="M0 0 C0 0.66 0 1.32 0 2 C-2.18652739 2.33965474 -4.37428025 2.67142477 -6.5625 3 C-8.38974609 3.2784375 -8.38974609 3.2784375 -10.25390625 3.5625 C-13.90251624 3.98861504 -17.33230208 4.21761372 -21 4 C-21.66 3.34 -22.32 2.68 -23 2 C-15.2441657 0.29005228 -7.93396732 -0.24923458 0 0 Z " fill="#4192DB" transform="translate(136,124)"/>
<path d="M0 0 C0.66 0.33 1.32 0.66 2 1 C1.49339844 1.68835938 1.49339844 1.68835938 0.9765625 2.390625 C-1.79858269 6.14950795 -1.79858269 6.14950795 -4 10.25 C-5.44047913 12.77083848 -7.47954745 13.67344602 -10 15 C-10.33 14.01 -10.66 13.02 -11 12 C-9.453125 9.51953125 -9.453125 9.51953125 -7.25 6.8125 C-6.53328125 5.91144531 -5.8165625 5.01039063 -5.078125 4.08203125 C-4.39234375 3.39496094 -3.7065625 2.70789063 -3 2 C-2.01 2 -1.02 2 0 2 C0 1.34 0 0.68 0 0 Z " fill="#4599E0" transform="translate(250,279)"/>
<path d="M0 0 C0 0.66 0 1.32 0 2 C-2.82411765 2.94137255 -4.52918032 3.11725382 -7.44921875 3.09765625 C-8.29677734 3.09443359 -9.14433594 3.09121094 -10.01757812 3.08789062 C-10.89865234 3.07951172 -11.77972656 3.07113281 -12.6875 3.0625 C-13.58017578 3.05798828 -14.47285156 3.05347656 -15.39257812 3.04882812 C-17.59511987 3.03704983 -19.79752599 3.02060164 -22 3 C-22 2.34 -22 1.68 -22 1 C-14.63959083 0.20274098 -7.40239645 -0.12886183 0 0 Z " fill="#4190DB" transform="translate(127,120)"/>
<path d="M0 0 C7.26 0 14.52 0 22 0 C22 0.66 22 1.32 22 2 C14.55791648 4.13362486 7.30384552 3.16410238 0 1 C0 0.67 0 0.34 0 0 Z " fill="#3E8CDA" transform="translate(98,116)"/>
<path d="M0 0 C8.25 0 16.5 0 25 0 C25 0.33 25 0.66 25 1 C23.35 1.33 21.7 1.66 20 2 C19.67 2.99 19.34 3.98 19 5 C16.03 4.505 16.03 4.505 13 4 C13.33 3.01 13.66 2.02 14 1 C9.38 1.33 4.76 1.66 0 2 C0 1.34 0 0.68 0 0 Z " fill="#2E6BCC" transform="translate(111,319)"/>
<path d="M0 0 C1.91808109 0.45237761 3.83442033 0.91214463 5.75 1.375 C6.81734375 1.63023437 7.8846875 1.88546875 8.984375 2.1484375 C11.55852722 2.87533541 13.67600186 3.7026224 16 5 C15.67 5.99 15.34 6.98 15 8 C9.63904723 6.41078475 4.29156027 4.81027062 -1 3 C-0.67 2.01 -0.34 1.02 0 0 Z " fill="#489FDF" transform="translate(178,192)"/>
<path d="M0 0 C14.78132118 -0.3690205 14.78132118 -0.3690205 21 2 C21 2.33 21 2.66 21 3 C6.21867882 3.18451025 6.21867882 3.18451025 0 2 C0 1.34 0 0.68 0 0 Z " fill="#3D8ADA" transform="translate(94,111)"/>
<path d="M0 0 C0.33 0.66 0.66 1.32 1 2 C-2.06442642 8.68602129 -6.99828466 13.68834931 -12 19 C-12.66 18.67 -13.32 18.34 -14 18 C-13.24074219 17.03578125 -12.48148437 16.0715625 -11.69921875 15.078125 C-10.69528885 13.80210194 -9.69138391 12.52605924 -8.6875 11.25 C-8.18798828 10.61578125 -7.68847656 9.9815625 -7.17382812 9.328125 C-4.74794301 6.24355585 -2.33433646 3.15493938 0 0 Z " fill="#DCF4F9" transform="translate(306,250)"/>
<path d="M0 0 C-0.75 1.9375 -0.75 1.9375 -2 4 C-5.36594407 5.24664595 -8.69658925 5.10112403 -12.25 5.0625 C-13.32765625 5.05347656 -14.4053125 5.04445312 -15.515625 5.03515625 C-16.33546875 5.02355469 -17.1553125 5.01195312 -18 5 C-15.82707291 2.82707291 -14.96628992 2.58098417 -12.0625 1.9375 C-3.12270551 -0.08439745 -3.12270551 -0.08439745 0 0 Z " fill="#479CE1" transform="translate(163,138)"/>
<path d="M0 0 C-7.70276695 5.13517797 -17.11211907 4.22757021 -26 4 C-26 3.67 -26 3.34 -26 3 C-22.79279138 2.4926043 -19.58407837 1.995421 -16.375 1.5 C-15.47136719 1.35691406 -14.56773437 1.21382813 -13.63671875 1.06640625 C-9.04560134 0.36265833 -4.66168185 -0.18584778 0 0 Z " fill="#386DB6" transform="translate(199,323)"/>
<path d="M0 0 C4.63116013 1.27356904 8.21060525 3.24846937 12.16796875 5.87890625 C14.10995074 7.16189886 14.10995074 7.16189886 17 8 C17 8.66 17 9.32 17 10 C17.804375 10.12375 18.60875 10.2475 19.4375 10.375 C20.283125 10.58125 21.12875 10.7875 22 11 C22.33 11.66 22.66 12.32 23 13 C17.71591251 12.48215943 13.69958073 9.7375009 9.25 7.0625 C8.47011719 6.60681641 7.69023438 6.15113281 6.88671875 5.68164062 C1.13188486 2.26376971 1.13188486 2.26376971 0 0 Z " fill="#4078B5" transform="translate(100,126)"/>
<path d="M0 0 C0.66 0.66 1.32 1.32 2 2 C1.48050781 2.71285156 0.96101563 3.42570312 0.42578125 4.16015625 C-3.40660857 9.42349384 -7.22685795 14.694019 -11 20 C-12 17 -12 17 -11.22265625 15.17578125 C-10.1484375 13.45052083 -9.07421875 11.72526042 -8 10 C-7.34 10 -6.68 10 -6 10 C-5.7525 9.46375 -5.505 8.9275 -5.25 8.375 C-3.70303025 5.43575748 -1.86985631 2.74245592 0 0 Z " fill="#4FACEB" transform="translate(335,120)"/>
<path d="M0 0 C0.66 0.33 1.32 0.66 2 1 C-2.625 4 -2.625 4 -6 4 C-6.33 4.99 -6.66 5.98 -7 7 C-11.62 7.33 -16.24 7.66 -21 8 C-17.84567867 5.89711911 -15.24894384 5.06147554 -11.625 4 C-8.40579679 3.0527402 -5.29925618 2.12741439 -2.2109375 0.8125 C-1.48132813 0.544375 -0.75171875 0.27625 0 0 Z " fill="#71C6DC" transform="translate(324,69)"/>
<path d="M0 0 C0.66 0 1.32 0 2 0 C2.391875 0.886875 2.78375 1.77375 3.1875 2.6875 C4.83428857 6.09599515 4.83428857 6.09599515 7.625 8.5 C10.36887184 11.38828615 10.72739925 13.09272255 11 17 C6.52950256 12.92395822 2.90310127 8.32734048 0 3 C0 2.01 0 1.02 0 0 Z " fill="#376DAF" transform="translate(74,150)"/>
<path d="M0 0 C2.01822917 0.26041667 4.03645833 0.52083333 6.0546875 0.78125 C8.00498344 1.0372485 8.00498344 1.0372485 10 1 C10.33 0.67 10.66 0.34 11 0 C12.99958364 -0.04080783 15.00045254 -0.04254356 17 0 C16.3125 1.9375 16.3125 1.9375 15 4 C10.9176844 5.36077187 8.56213135 4.76733779 4.6875 3.0625 C3.80449219 2.68222656 2.92148438 2.30195313 2.01171875 1.91015625 C1.34785156 1.60980469 0.68398437 1.30945313 0 1 C0 0.67 0 0.34 0 0 Z " fill="#3B87D5" transform="translate(149,151)"/>
<path d="M0 0 C-0.639375 0.28875 -1.27875 0.5775 -1.9375 0.875 C-4.15206079 1.82823451 -4.15206079 1.82823451 -5 4 C-10.28 4 -15.56 4 -21 4 C-18.38529891 1.38529891 -16.62857317 1.48846177 -13 1 C-2.22431259 -0.69030391 -2.22431259 -0.69030391 0 0 Z " fill="#3575CE" transform="translate(206,320)"/>
<path d="M0 0 C4.455 0.99 4.455 0.99 9 2 C9 2.66 9 3.32 9 4 C3.06 4.33 -2.88 4.66 -9 5 C-6.3144406 2.3144406 -3.62378672 1.93950026 0 1 C0 0.67 0 0.34 0 0 Z " fill="#538EC2" transform="translate(420,81)"/>
<path d="M0 0 C4 4 8 8 12 12 C11.67 12.66 11.34 13.32 11 14 C9.1875 13.875 9.1875 13.875 7 13 C5.9641321 11.01833966 4.96887581 9.01526169 4 7 C1.43802877 4.18643108 1.43802877 4.18643108 -1 2 C-0.67 1.34 -0.34 0.68 0 0 Z " fill="#5095C7" transform="translate(54,40)"/>
<path d="M0 0 C0.33 0.66 0.66 1.32 1 2 C0.30132812 2.19335938 -0.39734375 2.38671875 -1.1171875 2.5859375 C-2.02726562 2.84632813 -2.93734375 3.10671875 -3.875 3.375 C-4.77992188 3.63023437 -5.68484375 3.88546875 -6.6171875 4.1484375 C-9.14569726 4.8604315 -9.14569726 4.8604315 -11 7 C-13.32275177 7.40047444 -15.65739357 7.7397104 -18 8 C-18.33 7.34 -18.66 6.68 -19 6 C-18.04738281 5.73445313 -17.09476563 5.46890625 -16.11328125 5.1953125 C-14.85902344 4.84210938 -13.60476562 4.48890625 -12.3125 4.125 C-11.07113281 3.77695312 -9.82976562 3.42890625 -8.55078125 3.0703125 C-5.61183146 2.18442444 -2.82228113 1.19798549 0 0 Z " fill="#63B3D6" transform="translate(152,302)"/>
<path d="M0 0 C0.625 2.0625 0.625 2.0625 1 4 C-1.63250388 5.31625194 -2.80179056 4.74813658 -5.625 4.0625 C-6.44226563 3.86785156 -7.25953125 3.67320312 -8.1015625 3.47265625 C-9.04128906 3.23869141 -9.04128906 3.23869141 -10 3 C-7.12787008 -0.11496306 -4.15361558 -2.07680779 0 0 Z " fill="#367ACE" transform="translate(167,203)"/>
<path d="M0 0 C0.33 0 0.66 0 1 0 C1 5.61 1 11.22 1 17 C0.34 17.33 -0.32 17.66 -1 18 C-2.96282811 15.20402902 -3.00108464 14.00812564 -2.5390625 10.546875 C-2.23742187 9.29390625 -1.93578125 8.0409375 -1.625 6.75 C-1.32851562 5.48671875 -1.03203125 4.2234375 -0.7265625 2.921875 C-0.48679688 1.95765625 -0.24703125 0.9934375 0 0 Z " fill="#346EB4" transform="translate(209,257)"/>
<path d="M0 0 C0.66 0.33 1.32 0.66 2 1 C-2.95 9.91 -2.95 9.91 -8 19 C-9.03864166 15.88407501 -9.09036928 14.9737344 -8 12 C-7.34 11.67 -6.68 11.34 -6 11 C-5.67 10.01 -5.34 9.02 -5 8 C-4.34 8 -3.68 8 -3 8 C-2.814375 6.8553125 -2.814375 6.8553125 -2.625 5.6875 C-2 3 -2 3 0 0 Z " fill="#589FCD" transform="translate(315,231)"/>
<path d="M0 0 C2.64 0.66 5.28 1.32 8 2 C7.07038578 3.15224028 6.1309875 4.29659176 5.1875 5.4375 C4.40439453 6.39462891 4.40439453 6.39462891 3.60546875 7.37109375 C2 9 2 9 -1 10 C-1 7 -1 7 1 4.8125 C1.66 4.214375 2.32 3.61625 3 3 C2.01 3 1.02 3 0 3 C0 2.01 0 1.02 0 0 Z " fill="#DDF6FA" transform="translate(288,96)"/>
<path d="M0 0 C0.33 0 0.66 0 1 0 C0.61330541 6.96050253 -1.63438409 11.9394075 -5 18 C-6.39214652 13.82356045 -4.70664266 11.16562207 -3.0625 7.3125 C-2.77181641 6.61060547 -2.48113281 5.90871094 -2.18164062 5.18554688 C-1.46289687 3.45349225 -0.73254669 1.72626219 0 0 Z " fill="#356AB5" transform="translate(207,281)"/>
<path d="M0 0 C0.66 0 1.32 0 2 0 C0.32770299 3.95969176 -2.36304994 7.0161201 -5.125 10.25 C-5.59292969 10.80429688 -6.06085938 11.35859375 -6.54296875 11.9296875 C-7.69175328 13.28947326 -8.84539653 14.64515165 -10 16 C-10.33 15.34 -10.66 14.68 -11 14 C-10.45730469 13.32453125 -9.91460937 12.6490625 -9.35546875 11.953125 C-8.64003906 11.06109375 -7.92460937 10.1690625 -7.1875 9.25 C-6.47980469 8.36828125 -5.77210938 7.4865625 -5.04296875 6.578125 C-3.77333781 4.97591387 -2.53898095 3.34423066 -1.36328125 1.671875 C-0.91339844 1.12015625 -0.46351563 0.5684375 0 0 Z " fill="#52B1E2" transform="translate(278,117)"/>
<path d="M0 0 C0.66 0.33 1.32 0.66 2 1 C0.58531689 1.96125903 -0.8318364 2.91888325 -2.25 3.875 C-3.03890625 4.40867187 -3.8278125 4.94234375 -4.640625 5.4921875 C-10.34771329 9.13943266 -10.34771329 9.13943266 -13.12207031 8.54638672 C-13.74178711 8.3660791 -14.36150391 8.18577148 -15 8 C-12.54665445 6.63603538 -10.08808766 5.28365831 -7.625 3.9375 C-6.92632812 3.54755859 -6.22765625 3.15761719 -5.5078125 2.75585938 C-3.70389816 1.77584822 -1.85416518 0.88124929 0 0 Z " fill="#52B2EF" transform="translate(179,301)"/>
<path d="M0 0 C3.21043882 1.38188453 5.04936365 2.92421903 7.25 5.625 C8.03117187 6.57246094 8.03117187 6.57246094 8.828125 7.5390625 C9.40820312 8.26222656 9.40820312 8.26222656 10 9 C3.37282609 7.34673913 3.37282609 7.34673913 1 6 C0.1875 2.875 0.1875 2.875 0 0 Z " fill="#609ABE" transform="translate(64,125)"/>
<path d="M0 0 C3.51705958 0.65271556 6.89325077 1.51393024 10.3125 2.5625 C11.19550781 2.83191406 12.07851562 3.10132813 12.98828125 3.37890625 C13.65214844 3.58386719 14.31601563 3.78882813 15 4 C15 4.99 15 5.98 15 7 C11.14974121 6.39644592 8.13898841 5.23227397 4.6875 3.4375 C3.80449219 2.98246094 2.92148438 2.52742187 2.01171875 2.05859375 C1.34785156 1.70925781 0.68398437 1.35992187 0 1 C0 0.67 0 0.34 0 0 Z " fill="#4696D2" transform="translate(98,152)"/>
<path d="M0 0 C2.1875 -0.375 2.1875 -0.375 5 0 C6.99022836 1.83961648 8.38989899 3.79186148 10 6 C8.375 6.8125 8.375 6.8125 6 7 C2.75 4.6875 2.75 4.6875 0 2 C0 1.34 0 0.68 0 0 Z " fill="#5CB7E1" transform="translate(418,76)"/>
<path d="M0 0 C2.95887459 -0.08069658 5.9155659 -0.14034665 8.875 -0.1875 C9.71675781 -0.21263672 10.55851563 -0.23777344 11.42578125 -0.26367188 C12.23144531 -0.27333984 13.03710938 -0.28300781 13.8671875 -0.29296875 C14.98262939 -0.31653442 14.98262939 -0.31653442 16.12060547 -0.34057617 C17.05090576 -0.17199097 17.05090576 -0.17199097 18 0 C18.66 0.99 19.32 1.98 20 3 C13.13484138 3.26404456 6.74153283 2.25841946 0 1 C0 0.67 0 0.34 0 0 Z " fill="#5C8AC2" transform="translate(124,325)"/>
<path d="M0 0 C3.67780492 3.91508266 4.50908902 6.69816142 5 12 C5.33 12.99 5.66 13.98 6 15 C5.34 15 4.68 15 4 15 C3.32243118 13.44219668 2.65840543 11.87849904 2 10.3125 C1.62875 9.44238281 1.2575 8.57226562 0.875 7.67578125 C-0.01870488 4.9427998 -0.16449676 2.85299066 0 0 Z " fill="#3872B3" transform="translate(66,129)"/>
<path d="M0 0 C3.45176554 1.40273876 4.81058146 2.83751737 6.625 6.0625 C8.2426718 9.1157672 8.2426718 9.1157672 11 11 C11 12.32 11 13.64 11 15 C10.01 15 9.02 15 8 15 C7.90847656 14.45859375 7.81695312 13.9171875 7.72265625 13.359375 C6.77895684 10.27832394 5.20020895 7.9421373 3.4375 5.25 C2.79683594 4.26515625 2.15617188 3.2803125 1.49609375 2.265625 C1.00238281 1.51796875 0.50867188 0.7703125 0 0 Z " fill="#4CA7E2" transform="translate(139,108)"/>
<path d="M0 0 C4.35970831 1.34849837 8.31341438 3.04907846 12.375 5.125 C13.43460938 5.66382812 14.49421875 6.20265625 15.5859375 6.7578125 C16.38257812 7.16773437 17.17921875 7.57765625 18 8 C13.53592099 9.44886775 11.15476525 8.07738263 7 6 C5.64886795 5.02418241 4.31053056 4.02970259 3 3 C2.01 2.67 1.02 2.34 0 2 C0 1.34 0 0.68 0 0 Z " fill="#56A2C8" transform="translate(99,77)"/>
<path d="M0 0 C0.33 0.99 0.66 1.98 1 3 C-0.43359375 5.48046875 -0.43359375 5.48046875 -2.4375 8.1875 C-3.09621094 9.08855469 -3.75492187 9.98960937 -4.43359375 10.91796875 C-5.20896484 11.94857422 -5.20896484 11.94857422 -6 13 C-6.66 12.67 -7.32 12.34 -8 12 C-7.67 11.01 -7.34 10.02 -7 9 C-6.34 9 -5.68 9 -5 9 C-4.9175 8.21625 -4.835 7.4325 -4.75 6.625 C-4 4 -4 4 -1.9375 2.6875 C-1.298125 2.460625 -0.65875 2.23375 0 2 C0 1.34 0 0.68 0 0 Z " fill="#4C93CB" transform="translate(305,248)"/>
<path d="M0 0 C2 2 2 2 3 5 C-1.29 5.99 -5.58 6.98 -10 8 C-9.67 7.34 -9.34 6.68 -9 6 C-7.865625 5.71125 -6.73125 5.4225 -5.5625 5.125 C-1.94113414 4.38697108 -1.94113414 4.38697108 -0.5625 1.875 C-0.376875 1.25625 -0.19125 0.6375 0 0 Z " fill="#4091D7" transform="translate(181,145)"/>
<path d="M0 0 C0.99 0.495 0.99 0.495 2 1 C2.33333333 2.33333333 2.66666667 3.66666667 3 5 C3.66 5.33 4.32 5.66 5 6 C4.95875 6.763125 4.9175 7.52625 4.875 8.3125 C4.77919176 11.22718416 4.77919176 11.22718416 7 14 C6.01 14 5.02 14 4 14 C3.32471777 12.42032193 2.66010306 10.83608097 2 9.25 C1.62875 8.36828125 1.2575 7.4865625 0.875 6.578125 C0 4 0 4 0 0 Z " fill="#3872B8" transform="translate(49,60)"/>
<path d="M0 0 C-1.95519384 1.17192047 -3.9142539 2.3373929 -5.875 3.5 C-6.96554688 4.1496875 -8.05609375 4.799375 -9.1796875 5.46875 C-12 7 -12 7 -14 7 C-13.67 6.01 -13.34 5.02 -13 4 C-11.68 4 -10.36 4 -9 4 C-8.67 3.01 -8.34 2.02 -8 1 C-4.68510482 -0.74468167 -3.63361056 -1.21120352 0 0 Z " fill="#DCF6FB" transform="translate(179,289)"/>
<path d="M0 0 C3.465 1.485 3.465 1.485 7 3 C6.01 3.495 6.01 3.495 5 4 C4.67 4.99 4.34 5.98 4 7 C3.01 6.67 2.02 6.34 1 6 C1 5.34 1 4.68 1 4 C0.34 4 -0.32 4 -1 4 C-0.67 2.68 -0.34 1.36 0 0 Z " fill="#4396DA" transform="translate(108,86)"/>
<path d="M0 0 C2.3125 0.125 2.3125 0.125 5 1 C6.8125 4.0625 6.8125 4.0625 8 7 C6.35 6.67 4.7 6.34 3 6 C3 5.34 3 4.68 3 4 C2.34 4 1.68 4 1 4 C0.67 2.68 0.34 1.36 0 0 Z " fill="#5BC6E6" transform="translate(272,165)"/>
<path d="M0 0 C1.32 0.33 2.64 0.66 4 1 C3.07347299 2.17539996 2.13336613 3.34010577 1.1875 4.5 C0.66542969 5.1496875 0.14335937 5.799375 -0.39453125 6.46875 C-2 8 -2 8 -5 8 C-3.35 5.36 -1.7 2.72 0 0 Z " fill="#4B88C3" transform="translate(376,104)"/>
<path d="M0 0 C-0.33 1.32 -0.66 2.64 -1 4 C-1.99 4 -2.98 4 -4 4 C-4.226875 4.61875 -4.45375 5.2375 -4.6875 5.875 C-6.37929835 8.61410209 -7.99244161 9.05024472 -11 10 C-10.06409496 8.8944811 -9.12620142 7.79064547 -8.1875 6.6875 C-7.66542969 6.07261719 -7.14335937 5.45773437 -6.60546875 4.82421875 C-2.35974304 0 -2.35974304 0 0 0 Z " fill="#3269B5" transform="translate(214,289)"/>
<path d="M0 0 C3.71599191 -0.20086443 4.77208445 -0.1519437 8 2 C8 2.66 8 3.32 8 4 C9.32 4 10.64 4 12 4 C12.33 5.32 12.66 6.64 13 8 C11.96875 7.401875 10.9375 6.80375 9.875 6.1875 C6.63992683 4.33606301 3.35082164 2.63454714 0 1 C0 0.67 0 0.34 0 0 Z " fill="#D7F7FA" transform="translate(234,130)"/>
<path d="M0 0 C5.98511371 0.34302035 10.75117306 0.82307843 16 4 C16 4.66 16 5.32 16 6 C15.43152344 5.80664062 14.86304688 5.61328125 14.27734375 5.4140625 C9.54635062 3.81863577 4.81205575 2.33099414 0 1 C0 0.67 0 0.34 0 0 Z " fill="#CFF4F8" transform="translate(195,114)"/>
<path d="M0 0 C2.31 0 4.62 0 7 0 C7 0.66 7 1.32 7 2 C8.32 2.66 9.64 3.32 11 4 C9 5 9 5 6.8359375 4.44140625 C6.02382812 4.15136719 5.21171875 3.86132812 4.375 3.5625 C3.55773437 3.27503906 2.74046875 2.98757812 1.8984375 2.69140625 C1.27195313 2.46324219 0.64546875 2.23507813 0 2 C0 1.34 0 0.68 0 0 Z " fill="#4E83BC" transform="translate(145,202)"/>
<path d="M0 0 C2.97 0.495 2.97 0.495 6 1 C6 1.66 6 2.32 6 3 C7.32 3.33 8.64 3.66 10 4 C10 4.66 10 5.32 10 6 C5.87248551 5.39301257 2.6678852 3.96189209 -1 2 C-0.67 1.34 -0.34 0.68 0 0 Z " fill="#477AB5" transform="translate(122,192)"/>
<path d="M0 0 C0.99 0.33 1.98 0.66 3 1 C0.03 4.3 -2.94 7.6 -6 11 C-6.33 10.01 -6.66 9.02 -7 8 C-4.6875 4.8125 -4.6875 4.8125 -2 2 C-1.34 2 -0.68 2 0 2 C0 1.34 0 0.68 0 0 Z " fill="#DCF8FB" transform="translate(278,112)"/>
<path d="M0 0 C2.97 0 5.94 0 9 0 C9 0.99 9 1.98 9 3 C2.25 3.125 2.25 3.125 0 2 C0 1.34 0 0.68 0 0 Z " fill="#3D8ADB" transform="translate(91,106)"/>
<path d="M0 0 C2.97 0.33 5.94 0.66 9 1 C9.33 2.32 9.66 3.64 10 5 C8.68 5.33 7.36 5.66 6 6 C6.33 5.34 6.66 4.68 7 4 C4.69 3.01 2.38 2.02 0 1 C0 0.67 0 0.34 0 0 Z " fill="#4D8EC7" transform="translate(288,95)"/>
<path d="M0 0 C0.70511719 0.17402344 1.41023438 0.34804687 2.13671875 0.52734375 C5.20093804 1.03316985 7.73160701 0.89657273 10.8125 0.5625 C12.27623047 0.40974609 12.27623047 0.40974609 13.76953125 0.25390625 C14.87361328 0.12822266 14.87361328 0.12822266 16 0 C16 0.33 16 0.66 16 1 C14.4188708 1.50692692 12.83498617 2.00526443 11.25 2.5 C10.36828125 2.7784375 9.4865625 3.056875 8.578125 3.34375 C6 4 6 4 2 4 C1.34 2.68 0.68 1.36 0 0 Z " fill="#DBFBFD" transform="translate(379,67)"/>
<path d="M0 0 C4.48525648 0.656379 8.66914029 1.70074209 13 3 C11.296875 4.1171875 11.296875 4.1171875 9 5 C6.640625 4.3203125 6.640625 4.3203125 4.25 3.125 C3.45078125 2.73570312 2.6515625 2.34640625 1.828125 1.9453125 C0.92320312 1.47738281 0.92320312 1.47738281 0 1 C0 0.67 0 0.34 0 0 Z " fill="#3D72B2" transform="translate(134,198)"/>
<path d="M0 0 C0 0.66 0 1.32 0 2 C-1.64453125 3.32421875 -1.64453125 3.32421875 -3.8125 4.6875 C-4.52019531 5.14511719 -5.22789062 5.60273437 -5.95703125 6.07421875 C-8 7 -8 7 -11 6 C-8.24029211 2.78034079 -4.3526723 0 0 0 Z " fill="#D8EDF5" transform="translate(406,89)"/>
<path d="M0 0 C2.64 0.66 5.28 1.32 8 2 C8.33 3.65 8.66 5.3 9 7 C6.69 6.01 4.38 5.02 2 4 C2 3.34 2 2.68 2 2 C1.34 2 0.68 2 0 2 C0 1.34 0 0.68 0 0 Z " fill="#499DDB" transform="translate(80,68)"/>
<path d="M0 0 C5.82271337 -0.59720137 9.9209404 1.471757 15 4 C11.21180727 5.43410153 8.93478721 4.51009497 5.25 3.0625 C3.77273437 2.49208984 3.77273437 2.49208984 2.265625 1.91015625 C1.51796875 1.60980469 0.7703125 1.30945313 0 1 C0 0.67 0 0.34 0 0 Z " fill="#5F90BC" transform="translate(91,316)"/>
<path d="M0 0 C0.66 0.33 1.32 0.66 2 1 C-0.13432142 4.20148213 -0.68419896 4.52206739 -4.125 5.6875 C-4.84945312 5.93886719 -5.57390625 6.19023437 -6.3203125 6.44921875 C-7.15175781 6.72185547 -7.15175781 6.72185547 -8 7 C-8.66 6.34 -9.32 5.68 -10 5 C-8.38007835 4.13624104 -6.75388139 3.28424146 -5.125 2.4375 C-4.22007812 1.96183594 -3.31515625 1.48617188 -2.3828125 0.99609375 C-1.20332031 0.50302734 -1.20332031 0.50302734 0 0 Z " fill="#DAEEF6" transform="translate(243,307)"/>
<path d="M0 0 C1.2065625 0.0309375 1.2065625 0.0309375 2.4375 0.0625 C-1.3184214 3.49181954 -5.79716745 4.62679083 -10.5625 6.0625 C-10.8925 5.4025 -11.2225 4.7425 -11.5625 4.0625 C-10.99660156 3.85753906 -10.43070313 3.65257812 -9.84765625 3.44140625 C-9.11417969 3.17199219 -8.38070312 2.90257812 -7.625 2.625 C-6.89410156 2.35816406 -6.16320312 2.09132813 -5.41015625 1.81640625 C-1.01948925 0.02486559 -1.01948925 0.02486559 0 0 Z " fill="#DBF7FB" transform="translate(162.5625,295.9375)"/>
<path d="M0 0 C1.41750563 0.11509661 2.83401169 0.24253658 4.25 0.375 C5.03890625 0.44460937 5.8278125 0.51421875 6.640625 0.5859375 C9 1 9 1 13 3 C9.04 3 5.08 3 1 3 C0.67 2.01 0.34 1.02 0 0 Z " fill="#57A3CA" transform="translate(135,164)"/>
<path d="M0 0 C1.21236328 0.01353516 1.21236328 0.01353516 2.44921875 0.02734375 C3.37154297 0.04474609 3.37154297 0.04474609 4.3125 0.0625 C4.3125 0.3925 4.3125 0.7225 4.3125 1.0625 C-1.25817277 2.65412079 -5.89851581 3.26924944 -11.6875 3.0625 C-7.67753141 0.98837831 -4.53355023 -0.06570363 0 0 Z " fill="#4599E2" transform="translate(135.6875,127.9375)"/>
<path d="M0 0 C2.93200474 2.85276137 5.64315404 5.65079784 8 9 C5 9 5 9 2.3125 6.75 C0 4 0 4 0 0 Z " fill="#4479B4" transform="translate(85,165)"/>
<path d="M0 0 C-7.28571429 3.42857143 -7.28571429 3.42857143 -12 3 C-12 2.34 -12 1.68 -12 1 C-10.37681021 0.63762737 -8.7513642 0.28534843 -7.125 -0.0625 C-6.22007812 -0.25972656 -5.31515625 -0.45695313 -4.3828125 -0.66015625 C-2 -1 -2 -1 0 0 Z " fill="#499FE2" transform="translate(207,164)"/>
<path d="M0 0 C1.24300868 4.97203471 0.27922924 8.44154151 -2 13 C-2.66 12.67 -3.32 12.34 -4 12 C-2.68 8.04 -1.36 4.08 0 0 Z " fill="#D5F2F8" transform="translate(335,187)"/>
<path d="M0 0 C3.63 0 7.26 0 11 0 C11.33 0.99 11.66 1.98 12 3 C7.18550592 2.51855059 4.39828259 2.1991413 0 0 Z " fill="#CBECF4" transform="translate(163,170)"/>
<path d="M0 0 C3.31562557 0.55260426 6.15062207 1.16825705 9 3 C9.33 3.99 9.66 4.98 10 6 C6.40992874 4.66654496 3.20429093 3.1056769 0 1 C0 0.67 0 0.34 0 0 Z " fill="#D7F2F8" transform="translate(88,143)"/>
<path d="M0 0 C1.62580966 0.11398665 3.25067157 0.24155659 4.875 0.375 C5.77992187 0.44460937 6.68484375 0.51421875 7.6171875 0.5859375 C10 1 10 1 12 3 C8.52128379 4.15957207 7.65780355 3.77456651 4.3125 2.5625 C3.50425781 2.27503906 2.69601563 1.98757812 1.86328125 1.69140625 C1.24839844 1.46324219 0.63351563 1.23507813 0 1 C0 0.67 0 0.34 0 0 Z " fill="#D6F1F7" transform="translate(114,156)"/>
<path d="M0 0 C-1 1.5 -1 1.5 -3 3 C-5.71846235 3.27345479 -8.25677199 3.13491285 -11 3 C-3.71428571 -1.85714286 -3.71428571 -1.85714286 0 0 Z " fill="#49A0E2" transform="translate(171,142)"/>
<path d="M0 0 C1.2065625 0.0309375 1.2065625 0.0309375 2.4375 0.0625 C0.81410195 1.77134005 -0.85569053 3.43696717 -2.5625 5.0625 C-3.2225 5.0625 -3.8825 5.0625 -4.5625 5.0625 C-3.43829114 0.08386076 -3.43829114 0.08386076 0 0 Z " fill="#DCF4F8" transform="translate(183.5625,282.9375)"/>
<path d="M0 0 C8.57142857 0.85714286 8.57142857 0.85714286 12 3 C12 3.66 12 4.32 12 5 C10.56068883 4.54738642 9.12361001 4.08767021 7.6875 3.625 C6.88699219 3.36976563 6.08648437 3.11453125 5.26171875 2.8515625 C3 2 3 2 0 0 Z " fill="#4C89BE" transform="translate(149,151)"/>
<path d="M0 0 C2.97 0.99 5.94 1.98 9 3 C9 3.99 9 4.98 9 6 C5.06326356 4.68775452 2.77280706 3.08089673 0 0 Z " fill="#4892C8" transform="translate(79,140)"/>
<path d="M0 0 C0.33 1.32 0.66 2.64 1 4 C-0.98 5.32 -2.96 6.64 -5 8 C-5.66 7.67 -6.32 7.34 -7 7 C-4.69 4.69 -2.38 2.38 0 0 Z " fill="#60ACD2" transform="translate(287,106)"/>
<path d="M0 0 C3.96 0 7.92 0 12 0 C9.4345406 2.5654594 7.52313332 2.54046087 4 3 C4 2.34 4 1.68 4 1 C2.68 0.67 1.36 0.34 0 0 Z " fill="#59C2EE" transform="translate(352,63)"/>
<path d="M0 0 C1.60031344 3.20062687 0.03173691 5.72271806 -1 9 C-1.66 8.34 -2.32 7.68 -3 7 C-3.99 7.495 -3.99 7.495 -5 8 C-3.62845496 5.04590299 -2.01136276 2.55991624 0 0 Z " fill="#4291DA" transform="translate(208,262)"/>
<path d="M0 0 C0.33 0 0.66 0 1 0 C1.25 6.625 1.25 6.625 -1 10 C-1.66 10 -2.32 10 -3 10 C-2.01 6.7 -1.02 3.4 0 0 Z " fill="#D0EDF5" transform="translate(341,171)"/>
<path d="M0 0 C2.4294516 3.6441774 2.16179575 5.71241272 2 10 C0.10786631 7.61426621 -1.02391783 5.92824652 -2 3 C-1.34 2.01 -0.68 1.02 0 0 Z " fill="#53B5E8" transform="translate(178,117)"/>
<path d="M0 0 C1.32 0 2.64 0 4 0 C4 0.66 4 1.32 4 2 C5.32 2.66 6.64 3.32 8 4 C7.01 4.495 7.01 4.495 6 5 C3.64018187 4.06421005 1.30368736 3.06652192 -1 2 C-0.67 1.34 -0.34 0.68 0 0 Z " fill="#DDF6FA" transform="translate(135,91)"/>
<path d="M0 0 C2.64 1.98 5.28 3.96 8 6 C6.68 6.33 5.36 6.66 4 7 C1.75 5.25 1.75 5.25 0 3 C0 2.01 0 1.02 0 0 Z " fill="#D2ECF3" transform="translate(273,86)"/>
<path d="M0 0 C1.65 0.33 3.3 0.66 5 1 C2.82575883 3.50037734 1.26954202 4.43628586 -2 5 C-1.34 3.35 -0.68 1.7 0 0 Z " fill="#3671BD" transform="translate(243,303)"/>
<path d="M0 0 C1.15224028 0.92961422 2.29659176 1.8690125 3.4375 2.8125 C4.07558594 3.33457031 4.71367187 3.85664063 5.37109375 4.39453125 C7 6 7 6 8 9 C4.20620942 7.50958227 2.31656242 5.30937488 0 2 C0 1.34 0 0.68 0 0 Z " fill="#4393DE" transform="translate(124,167)"/>
<path d="M0 0 C0.66 0.99 1.32 1.98 2 3 C1.3125 6.125 1.3125 6.125 0 9 C-0.99 9.33 -1.98 9.66 -3 10 C-2.01 6.7 -1.02 3.4 0 0 Z " fill="#CEECF4" transform="translate(349,151)"/>
<path d="M0 0 C0 3.57575896 -1.08840607 5.05295935 -3 8 C-3.99 7.67 -4.98 7.34 -6 7 C-4.02 4.69 -2.04 2.38 0 0 Z " fill="#4294D6" transform="translate(274,125)"/>
<path d="M0 0 C-2.91765 1.9451 -4.62537285 2.45276317 -8 3 C-7.67 2.01 -7.34 1.02 -7 0 C-4.05610218 -1.17755913 -3.10046087 -1.03348696 0 0 Z " fill="#4375B9" transform="translate(221,317)"/>
<path d="M0 0 C0.33 0 0.66 0 1 0 C1.125 3.375 1.125 3.375 1 7 C0.34 7.66 -0.32 8.32 -1 9 C-2.0326802 6.21176345 -2.04509293 5.1322726 -1.0625 2.25 C-0.711875 1.5075 -0.36125 0.765 0 0 Z " fill="#5182BC" transform="translate(209,274)"/>
<path d="M0 0 C2.62187494 1.04874998 3.79371361 1.64931313 5.25 4.125 C5.4975 4.74375 5.745 5.3625 6 6 C2.535 4.02 2.535 4.02 -1 2 C-0.67 1.34 -0.34 0.68 0 0 Z " fill="#B9EBF5" transform="translate(207,182)"/>
<path d="M0 0 C3.36179774 1.44077046 5.59156268 3.24750021 8 6 C8 6.66 8 7.32 8 8 C4.65001479 6.88333826 4.20659778 6.25305075 2.3125 3.4375 C1.87550781 2.79683594 1.43851563 2.15617188 0.98828125 1.49609375 C0.49908203 0.75552734 0.49908203 0.75552734 0 0 Z " fill="#4496DE" transform="translate(138,172)"/>
<path d="M0 0 C1.32 0.33 2.64 0.66 4 1 C4.33 3.31 4.66 5.62 5 8 C2.74754119 5.31158141 1.11786042 3.35358125 0 0 Z " fill="#DFFAFC" transform="translate(278,165)"/>
<path d="M0 0 C0.66 0 1.32 0 2 0 C1.46930939 3.82097239 0.50298434 6.06171403 -2 9 C-1.125 1.125 -1.125 1.125 0 0 Z " fill="#4E90C3" transform="translate(354,136)"/>
<path d="M0 0 C-2.97 1.32 -5.94 2.64 -9 4 C-9.66 3.34 -10.32 2.68 -11 2 C-4.5 -1.125 -4.5 -1.125 0 0 Z " fill="#C7E4F1" transform="translate(418,86)"/>
</svg>
